<?xml version="1.0" encoding="UTF-8" standalone="no"?>
<!-- Created with Inkscape (http://www.inkscape.org/) -->

<svg
   version="1.1"
   id="svg2"
   width="590.64246"
   height="590.64246"
   viewBox="0 0 590.64246 590.64246"
   xmlns="http://www.w3.org/2000/svg"
   xmlns:svg="http://www.w3.org/2000/svg"
   xmlns:rdf="http://www.w3.org/1999/02/22-rdf-syntax-ns#"
   xmlns:cc="http://creativecommons.org/ns#"
   xmlns:dc="http://purl.org/dc/elements/1.1/">
  <metadata
     id="metadata8">
    <rdf:RDF>
      <cc:Work
         rdf:about="">
        <dc:format>image/svg+xml</dc:format>
        <dc:type
           rdf:resource="http://purl.org/dc/dcmitype/StillImage" />
      </cc:Work>
    </rdf:RDF>
  </metadata>
  <defs
     id="defs6" />
  <polygon
     transform="matrix(3.9574035,0,0,4.2010209,3.9526741,-280.51846)"
     style="fill:#fb090b"
     points="59.233,204.5 59.233,68.833 46.267,76.833 46.267,199.5 "
     id="polygon8" />
  <polygon
     transform="matrix(3.9574035,0,0,4.2406562,-6.1490159,-291.58049)"
     points="46.233,199.5 46.233,76.833 33.267,86.833 33.267,189.5 "
     id="polygon10" />
  <polygon
     transform="matrix(3.9574035,0,0,4.5269593,-19.471056,-329.91763)"
     style="fill:#fb090b"
     points="20.267,106.833 20.267,169.5 33.233,189.5 33.233,86.833 "
     id="polygon12" />
  <polygon
     transform="matrix(6.6563131,0,0,3.9574035,-80.552666,-250.80039)"
     points="14.267,159.5 20.233,171.5 20.233,103.833 14.267,118.833 "
     id="polygon14" />
  <path
     id="path838"
     d="m 305.21472,13.356259 89.04151,19.78703 1.32563,227.933201 -90.2682,-1.27295 z"
     style="fill:#ffffff;fill-opacity:1;stroke:#ffffff;stroke-width:1px;stroke-linecap:butt;stroke-linejoin:miter;stroke-opacity:1" />
  <path
     style="fill:#ffffff;fill-opacity:1;stroke:#ffffff;stroke-width:0.99449px;stroke-linecap:butt;stroke-linejoin:miter;stroke-opacity:1"
     d="m 305.31103,328.95612 88.2117,2.37561 0.7335,227.15686 -89.04151,20.77637 z"
     id="path827" />
  <line
     style="fill:none;stroke:#ba9752;stroke-width:19.787;stroke-linecap:square;stroke-miterlimit:4;stroke-dasharray:none;stroke-opacity:0.98995"
     x1="394.25623"
     y1="33.143288"
     x2="394.25623"
     y2="558.48859"
     id="line16" />
  <path
     style="fill:#ffffff;fill-opacity:1;stroke:#ffffff;stroke-width:1px;stroke-linecap:butt;stroke-linejoin:miter;stroke-opacity:1"
     d="M 462.21639,61.894949 538.6738,144.6025 580.74796,259.87801 463.51382,259.2043 Z"
     id="path840" />
  <path
     id="path842"
     d="m 464.61336,330.95507 115.40821,0.012 -40.02214,114.67627 -74.08864,82.62107 z"
     style="fill:#ffffff;fill-opacity:1;stroke:#ffffff;stroke-width:1px;stroke-linecap:butt;stroke-linejoin:miter;stroke-opacity:1" />
  <line
     style="fill:none;stroke:#ba9752;stroke-width:19.787;stroke-linecap:square;stroke-miterlimit:4;stroke-dasharray:none;stroke-opacity:0.98995"
     x1="465.48956"
     y1="70.738625"
     x2="465.48956"
     y2="520.89325"
     id="line18" />
  <line
     style="fill:none;stroke:#ba9752;stroke-width:19.787;stroke-linecap:square;stroke-miterlimit:4;stroke-dasharray:none;stroke-opacity:0.98995"
     x1="305.31366"
     y1="328.9592"
     x2="573.82355"
     y2="328.9592"
     id="line20" />
  <line
     style="fill:none;stroke:#ba9752;stroke-width:19.787;stroke-linecap:square;stroke-miterlimit:4;stroke-dasharray:none;stroke-opacity:0.98995"
     x1="305.31366"
     y1="259.80353"
     x2="573.82355"
     y2="259.80353"
     id="line22" />
  <polygon
     transform="matrix(3.9574035,0,0,3.9574035,-42.047326,-250.80039)"
     style="fill:#fb090b;stroke:#ba9752;stroke-width:0;stroke-miterlimit:4;stroke-dasharray:none;stroke-opacity:0.98995"
     points="125.733,79.833 112.767,71.833 112.767,131.483 85.233,131.483 85.233,64.833 72.267,66.833 72.267,209.5 85.233,209.5 85.233,144.449 112.767,144.449 112.767,204.5 125.733,199.5 125.733,144.449 158.583,144.449 158.583,131.483 125.733,131.483 "
     id="polygon24" />
  <polygon
     transform="matrix(4.4802834,0,0,4.0959685,-23.590596,-267.96536)"
     points="72.233,209.5 72.233,68.833 59.267,68.833 59.267,204.5 "
     id="polygon6" />
  <line
     style="fill:none;stroke:#ba9752;stroke-width:19.787;stroke-linecap:square;stroke-miterlimit:4;stroke-dasharray:none;stroke-opacity:0.98995"
     x1="305.21472"
     y1="13.356261"
     x2="305.21472"
     y2="579.26495"
     id="line26" />
  <circle
     style="fill:none;stroke:#ba9752;stroke-width:19.787;stroke-miterlimit:4;stroke-dasharray:none;stroke-opacity:0.98995"
     cx="295.32123"
     cy="295.32123"
     r="285.42773"
     id="circle28" />
  <line
     id="line941"
     y2="454.55713"
     x2="61.147041"
     y1="131.7511"
     x1="61.147041"
     style="fill:none;stroke:#ba9752;stroke-width:14.9444;stroke-linecap:square;stroke-miterlimit:4;stroke-dasharray:none;stroke-opacity:0.98995" />
  <line
     style="fill:none;stroke:#ba9752;stroke-width:17.303;stroke-linecap:square;stroke-miterlimit:4;stroke-dasharray:none;stroke-opacity:0.98995"
     x1="119.62165"
     y1="79.086555"
     x2="119.62165"
     y2="511.83014"
     id="line943" />
  <line
     id="line945"
     y2="544.27045"
     x2="178.87592"
     y1="42.294579"
     x1="178.87592"
     style="fill:none;stroke:#ba9752;stroke-width:18.6358;stroke-linecap:square;stroke-miterlimit:4;stroke-dasharray:none;stroke-opacity:0.98995" />
  <line
     style="fill:none;stroke:#ba9752;stroke-width:19.253;stroke-linecap:square;stroke-miterlimit:4;stroke-dasharray:none;stroke-opacity:0.98995"
     x1="244.19794"
     y1="26.809807"
     x2="244.19794"
     y2="562.58575"
     id="line947" />
</svg>
