<svg fill="none" height="48" viewBox="0 0 48 48" width="48" xmlns="http://www.w3.org/2000/svg"><path d="m40 24.0451c0 8.8338-7.1662 15.9549-16 15.9549s-16-7.1211-16-15.9549 7.1662-16.0451 16-16.0451 16 6.3549 16 16.0451z" fill="#fff"/><g fill="#65b32e"><path d="m8.31555 24c.27042-9.7352 6.98595-13.7014 11.40285-15.0986 2.0281-.63099 3.7859-.67606 3.7859-.40563 0 .18028-1.5324.04507-3.6507.81126-3.7409 1.35207-9.0141 4.68737-9.3296 13.25067 0 7.8874 6.4 14.2423 14.2873 14.2423s14.2423-6.4 14.2423-14.2423c0-1.6676-.2704-3.0197-.6761-4.1464-.676-2.0282-1.5324-2.9747-1.1718-2.9747.2704 0 1.0366 1.5775 1.5775 3.0648.6309 1.7127.9014 3.2901.9014 5.5437 0 8.6535-7.031 15.6845-15.6845 15.6845-8.6536-.0451-15.68455-7.031-15.68455-15.7296z"/><path d="m22.4226 19.0874c0-2.7944 4.5972-2.524 4.5972-2.524v9.9155c0 .6761.4507 1.1268 1.2169 1.1268 1.262 0 1.1718-1.1268 1.1718-1.1268 0 .6761 0-7.2113 0-10.231 0-2.4789 4.5521-2.4789 4.5521-2.4789v13.2507.8113c-.4056 2.4789-2.569 4.4169-5.0929 4.4169-1.6676 0-3.155-.8113-4.1014-2.1183-.9916 1.307-2.4789 2.1183-4.1465 2.1183-2.569 0-4.6873-1.8929-5.093-4.4169l-.045-.8113s0-7.3014 0-10.7267c0-2.4789 4.5521-2.4789 4.5521-2.4789v12.7549c0 .7212.4957 1.1268 1.1718 1.1268.676 0 1.262-.4056 1.262-1.1268-.0451-.0901-.0451-5.138-.0451-7.4816z"/></g></svg>