<svg fill="none" height="48" viewBox="0 0 48 48" width="48" xmlns="http://www.w3.org/2000/svg"><path d="m20.8534 18.3925c1.0008-.7322 2.0089-1.457 3.0167-2.1743 1.0088.7093 2.0015 1.4336 3.0016 2.1507-.3628-1.166-.7484-2.3315-1.1339-3.4899.9999-.7322 2.0086-1.4491 3.0163-2.1736-1.2443-.008-2.4889 0-3.7418-.008-.3781-1.1736-.7558-2.3397-1.1422-3.51344-.3857 1.17374-.7484 2.34774-1.1498 3.51344-1.2367-.0078-2.4735-.0078-3.7101 0 .9845.7404 2.0009 1.4418 2.9932 2.166-.3701 1.1739-.7637 2.3477-1.15 3.5291z" fill="#cfaf2b"/><g fill="#0097db"><path d="m13.2593 31.7998c-.1726.5988-.338 1.1974-.5275 1.7878 10.3586-4.3954 20.7329-8.7748 31.0842-13.1864-4.294.008-8.5866 0-12.8875.008-.6067.8195-1.2211 1.6465-1.8434 2.4577.2282-.819.4648-1.6382.7086-2.4493-.4877 0-.984 0-1.4727 0-.402 1.0393-.9375 2.0243-1.4971 2.9854-.1497.2679-.3379.5196-.5668.7326 0-.2607.0239-.5202.1022-.7642.2835-.9851.5914-1.9615.8589-2.9538-.4727 0-.9452 0-1.4178 0-.2367.6302-.2759 1.3544-.7328 1.8747-.5747.7401-1.1262 1.4964-1.7016 2.2367.3944-1.3706.8037-2.7414 1.2054-4.1114-.5046 0-1.0005 0-1.5045 0-.2445.8111-.4727 1.6304-.725 2.4335-.4093.1025-.819.2125-1.2361.3073.2596-.9138.5353-1.8278.8028-2.7493-.5354 0-1.0707 0-1.6067-.008-.2524.8191-.4804 1.6387-.7171 2.4578-.0864.2837-.1339.6066-.3536.8274-.7726.9053-1.5526 1.8114-2.3167 2.7174-.3066.3229-.5903.804-1.1025.764-.3229-.5513-.2675-1.2208-.1968-1.8352.8902-.4568 1.7569-.9929 2.4814-1.6937.63-.6222 1.1183-1.4963.9849-2.4101-.0398-.4888-.4968-.8824-.9849-.8824-.8271-.087-1.6067.3229-2.2055.8512-1.0876.9765-1.765 2.3393-2.0801 3.7495-.4648.2281-.9373.4562-1.3941.6929-.1812-.5904-.4727-1.1506-.874-1.6224 1.1262-.7094 2.2211-1.5839 2.8043-2.8044.2679-.5914.402-1.2764.1811-1.8988-.2053-.5516-.7877-.8739-1.3551-.9137-1.3551-.1254-2.7094.4333-3.72599 1.308-.29932.2757-.64581.5668-.74056.9843-.1334.4728-.27588.9375-.40133 1.4099.10201-.0078.21239-.0156.31495-.0234.51981-.6937 1.12641-1.3551 1.91403-1.733.4171-.1968 1.0001-.2523 1.3392.11.2753.3942.1183.9138-.0313 1.3237-.5124 1.1818-1.5439 2.0167-2.51332 2.8119.59878.5438.87462 1.3238 1.00862 2.0958-2.44202 1.3944-4.78148 3.3473-5.7901 6.0575-.34635 1.0007-.54325 2.1427-.13396 3.1506.20513.5282.73274.9223 1.30794.891.90592-.0319 1.7171-.5361 2.40282-1.0957 1.63796-1.3778 2.8669-3.2056 3.6866-5.1755.5033-1.2206.8112-2.5442.7558-3.8752.3548-.1809.717-.3548 1.0792-.528-.0315.7562 0 1.5674.3935 2.2447.2131.3785.6542.6228 1.0876.5281.6852-.1418 1.229-.6379 1.6853-1.1421.717-.8511 1.3786-1.7485 2.0877-2.6153-.2443.9055-.5353 1.8036-.7797 2.7099.5987-.1814 1.1975-.3783 1.7884-.583.2837-.9926.5588-1.985.8583-2.9693.4177-.111.8268-.2133 1.2445-.3151-.268.9522-.5518 1.906-.819 2.8589.4804-.173.9771-.3149 1.4648-.481.1811-.0468.2994-.204.4099-.3463.5752-.7799 1.1657-1.5438 1.7414-2.3155-.0476.3857-.0868.7872-.0156 1.1735.0626.3151.2753.6458.6217.6701.4803.0706.8981-.2525 1.1583-.6228.4567-.646.7798-1.3704 1.1655-2.0481-.1411.6302-.2439 1.268-.3224 1.9067.5433-.2443 1.2675-.2287 1.6067-.7881.6061-.7957 1.2204-1.5755 1.8349-2.3631h.7484c-.2046.6779-.4013 1.3472-.6143 2.0244.5046-.1576 1.0005-.3309 1.5044-.4647.189-.5118.3229-1.04.4886-1.5597 1.5752.0078 3.1431 0 4.7185 0-8.066 3.2853-16.148 6.5544-24.2226 9.8389-.15.0233-.1736.2119-.2213.3462zm3.3643-9.8384c.1412-.2288.2994-.5125.5902-.5602.2282.0791.2523.3785.2211.583-.134.9452-.8199 1.7095-1.5996 2.206.1738-.7717.4098-1.5437.7883-2.2288zm-7.23932 10.0436c-.3864.874-.83531 1.748-1.51252 2.4337-.30714.2993-.69284.5829-1.13463.5829-.37008-.1026-.43343-.5515-.46483-.8747.03977-1.2288.52036-2.3944 1.1818-3.4187.75619-1.1582 1.76482-2.1585 2.9068-2.9304-.0556 1.45-.42542 2.8672-.97662 4.2072z"/><path d="m31.2592 29.3817c-.4491 0-.8897 0-1.3388 0v.7556h.5039v2.5607h.8505c-.0079-1.1035.0242-2.2057-.0156-3.3163z"/><path d="m36.9309 30.0822c-.1817-.8116-1.2994-1.0156-1.9137-.5669-.3394.2285-.4336.6463-.5127 1.0163.276.0079.5437.0079.8191.0079.0316-.3394.2445-.6067.6072-.5833.2041.0316.283.331.2283.5518-.0785.2358-.2367.425-.3937.6144-.4573.5276-.8981 1.0636-1.347 1.5909.8346-.0078 1.6779 0 2.5204 0 0-.2438 0-.4881 0-.7327-.315 0-.638 0-.9529 0 .4567-.5275 1.174-1.1025.945-1.8984z"/><path d="m39.2704 30.7127c-.2994-.2446-.7008-.1811-1.0555-.1811.0242-.1421.0397-.2761.0628-.4177.4097-.0156.8194-.0156 1.229-.0156 0-.236 0-.4806 0-.7166-.5904 0-1.1813 0-1.7722 0-.1098.5903-.2525 1.1891-.3543 1.78.3777-.1183.8033-.2599 1.1811-.0707.41.1884.3151.8741-.1184.9681-.4327.1583-.8346-.1098-1.1656-.3692-.0234.2672-.047.5431-.0788.8182.6229.3706 1.4889.4176 2.0485-.0785.5037-.4091.536-1.2913.0234-1.7169z"/><path d="m34.166 29.8067c-.3778-.5673-1.2288-.6538-1.7963-.3306-.6379.3705-.74 1.3706-.2123 1.8747.2437.2281.5907.2439.9058.2365-.2757.3622-.5279.7398-.7719 1.1186h.9531c.2758-.4255.5831-.8346.8505-1.2682.2918-.489.3705-1.1349.0711-1.631zm-.8113.2051c.1812.0786.3067.2596.3067.4722 0 .2052-.1255.3863-.2989.4647 0 0-.1105.0399-.1498.0399-.0235 0-.0476.0079-.0705.0079-.1114 0-.2129-.032-.2922-.0948h-.0073c-.0319-.0236-.0554-.0473-.0791-.0707-.0862-.0949-.1338-.2131-.1338-.347 0-.2838.2287-.5198.5197-.5198.0314 0 .0632 0 .0947.0079.0392.0079.1105.0397.1105.0397z"/></g></svg>