<?xml version="1.0" encoding="UTF-8" standalone="no"?>
<!-- Created with Inkscape (http://www.inkscape.org/) -->

<svg
   xmlns:dc="http://purl.org/dc/elements/1.1/"
   xmlns:cc="http://creativecommons.org/ns#"
   xmlns:rdf="http://www.w3.org/1999/02/22-rdf-syntax-ns#"
   xmlns:svg="http://www.w3.org/2000/svg"
   xmlns="http://www.w3.org/2000/svg"
   xmlns:sodipodi="http://sodipodi.sourceforge.net/DTD/sodipodi-0.dtd"
   xmlns:inkscape="http://www.inkscape.org/namespaces/inkscape"
   id="svg2"
   version="1.1"
   inkscape:version="0.48.5 r10040"
   width="360.89093"
   height="517.57501"
   xml:space="preserve"
   sodipodi:docname="1859980_DOWNLOAD.pdf"><metadata
     id="metadata8"><rdf:RDF><cc:Work
         rdf:about=""><dc:format>image/svg+xml</dc:format><dc:type
           rdf:resource="http://purl.org/dc/dcmitype/StillImage" /><dc:title></dc:title></cc:Work></rdf:RDF></metadata><defs
     id="defs6"><clipPath
       clipPathUnits="userSpaceOnUse"
       id="clipPath16"><path
         d="m 0,0 895.748,0 0,595.276 L 0,595.276 0,0 z"
         id="path18"
         inkscape:connector-curvature="0" /></clipPath><clipPath
       clipPathUnits="userSpaceOnUse"
       id="clipPath26"><path
         d="m 0,595.276 895.748,0 L 895.748,0 0,0 0,595.276 z"
         id="path28"
         inkscape:connector-curvature="0" /></clipPath><clipPath
       clipPathUnits="userSpaceOnUse"
       id="clipPath52"><path
         d="m 0,595.276 895.748,0 L 895.748,0 0,0 0,595.276 z"
         id="path54"
         inkscape:connector-curvature="0" /></clipPath><clipPath
       clipPathUnits="userSpaceOnUse"
       id="clipPath628"><path
         d="m 53.15,487.008 64.852,0 0,74.114 -64.852,0 0,-74.114 z"
         id="path630"
         inkscape:connector-curvature="0" /></clipPath><clipPath
       clipPathUnits="userSpaceOnUse"
       id="clipPath1080"><path
         d="m 303.874,451.26 44.453,0 0,61.017 -44.453,0 0,-61.017 z"
         id="path1082"
         inkscape:connector-curvature="0" /></clipPath><clipPath
       clipPathUnits="userSpaceOnUse"
       id="clipPath1842"><path
         d="m 360.901,451.26 44.454,0 0,61.017 -44.454,0 0,-61.017 z"
         id="path1844"
         inkscape:connector-curvature="0" /></clipPath><clipPath
       clipPathUnits="userSpaceOnUse"
       id="clipPath3072"><path
         d="m 490.394,477.159 62.362,0 0,87.36 -62.362,0 0,-87.36 z"
         id="path3074"
         inkscape:connector-curvature="0" /></clipPath><clipPath
       clipPathUnits="userSpaceOnUse"
       id="clipPath3112"><path
         d="m 740.409,451.26 44.454,0 0,61.017 -44.454,0 0,-61.017 z"
         id="path3114"
         inkscape:connector-curvature="0" /></clipPath><clipPath
       clipPathUnits="userSpaceOnUse"
       id="clipPath3680"><path
         d="m 797.436,451.26 44.454,0 0,61.017 -44.454,0 0,-61.017 z"
         id="path3682"
         inkscape:connector-curvature="0" /></clipPath><clipPath
       clipPathUnits="userSpaceOnUse"
       id="clipPath4254"><path
         d="m 0,0 895.748,0 0,595.276 L 0,595.276 0,0 z"
         id="path4256"
         inkscape:connector-curvature="0" /></clipPath><clipPath
       clipPathUnits="userSpaceOnUse"
       id="clipPath4262"><path
         d="m 52.8583,584.937 353.4957,0 0,-64.677 -353.4957,0 0,64.677 z"
         id="path4264"
         inkscape:connector-curvature="0" /></clipPath><clipPath
       clipPathUnits="userSpaceOnUse"
       id="clipPath4278"><path
         d="m 489.394,584.937 353.496,0 0,-64.677 -353.496,0 0,64.677 z"
         id="path4280"
         inkscape:connector-curvature="0" /></clipPath><clipPath
       clipPathUnits="userSpaceOnUse"
       id="clipPath4296"><path
         d="m 0,595.276 895.748,0 L 895.748,0 0,0 0,595.276 z"
         id="path4298"
         inkscape:connector-curvature="0" /></clipPath><clipPath
       clipPathUnits="userSpaceOnUse"
       id="clipPath4304"><path
         d="m 867.402,-8.504 36.85,0 0,612.283 -36.85,0 0,-612.283 z"
         id="path4306"
         inkscape:connector-curvature="0" /></clipPath></defs><sodipodi:namedview
     pagecolor="#ffffff"
     bordercolor="#666666"
     borderopacity="1"
     objecttolerance="10"
     gridtolerance="10"
     guidetolerance="10"
     inkscape:pageopacity="0"
     inkscape:pageshadow="2"
     inkscape:window-width="1366"
     inkscape:window-height="705"
     id="namedview4"
     showgrid="false"
     fit-margin-top="3"
     fit-margin-left="3"
     fit-margin-right="3"
     fit-margin-bottom="3"
     inkscape:zoom="1.0125593"
     inkscape:cx="180.44546"
     inkscape:cy="258.78748"
     inkscape:window-x="-8"
     inkscape:window-y="-8"
     inkscape:window-maximized="1"
     inkscape:current-layer="g10" /><g
     id="g10"
     inkscape:groupmode="layer"
     inkscape:label="1859980_DOWNLOAD"
     transform="matrix(1.25,0,0,-1.25,-234.27261,889.08575)"><g
       id="g1616"
       transform="matrix(60,0,0,60,331.53129,596.5846)"><path
         d="m 0,0 c -0.909,0 -1.653,-0.743 -1.653,-1.662 0,-0.909 0.744,-1.652 1.653,-1.652 0.918,0 1.662,0.743 1.662,1.652 C 1.662,-0.743 0.918,0 0,0"
         style="fill:#2e2e30;fill-opacity:1;fill-rule:evenodd;stroke:none"
         id="path1618"
         inkscape:connector-curvature="0" /></g><g
       id="g1620"
       transform="matrix(60,0,0,60,427.02729,496.8886)"><path
         d="m 0,0 c 0,-0.875 -0.708,-1.583 -1.592,-1.583 -0.874,0 -1.582,0.708 -1.582,1.583 0,0.883 0.708,1.592 1.582,1.592 C -0.708,1.592 0,0.883 0,0"
         style="fill:#00a650;fill-opacity:1;fill-rule:evenodd;stroke:none"
         id="path1622"
         inkscape:connector-curvature="0" /></g><g
       id="g1624"
       transform="matrix(60,0,0,60,331.53129,431.8306)"><path
         d="m 0,0 c -0.595,0 -1.084,0.49 -1.084,1.084 0,0.604 0.489,1.085 1.084,1.085 0.603,0 1.084,-0.481 1.084,-1.085 C 1.084,0.49 0.603,0 0,0"
         style="fill:#2e2e30;fill-opacity:1;fill-rule:evenodd;stroke:none"
         id="path1626"
         inkscape:connector-curvature="0" /></g><g
       id="g1628"
       transform="matrix(60,0,0,60,331.53129,434.9806)"><path
         d="m 0,0 c -0.568,0 -1.032,0.463 -1.032,1.032 0,0.577 0.464,1.041 1.032,1.041 0.577,0 1.041,-0.464 1.041,-1.041 C 1.041,0.463 0.577,0 0,0"
         style="fill:#ffffff;fill-opacity:1;fill-rule:evenodd;stroke:none"
         id="path1630"
         inkscape:connector-curvature="0" /></g><g
       id="g1632"
       transform="matrix(60,0,0,60,332.05329,490.5946)"><path
         d="m 0,0 c 0.035,-0.07 0.114,-0.192 0.192,-0.28 0.105,-0.105 0.21,-0.183 0.315,-0.201 0.088,-0.017 0.096,-0.009 0.061,0.018 -0.035,0.017 -0.218,0.104 -0.349,0.288 -0.114,0.14 -0.14,0.262 -0.132,0.262 0,0.009 0.193,0.105 0.307,0.219 C 0.533,0.446 0.56,0.525 0.577,0.621 0.595,0.691 0.568,0.7 0.56,0.665 0.533,0.603 0.49,0.516 0.394,0.42 0.219,0.227 0.035,0.192 0.017,0.192 0.017,0.192 0.009,0.21 0,0.227 L 0,0.341 C 0.009,0.315 0.026,0.297 0.044,0.297 c 0.07,0 0.052,0.236 0.043,0.298 C 0.07,0.7 0.07,0.813 0.122,0.866 0.219,0.971 0.315,0.971 0.42,0.944 0.525,0.909 0.542,0.848 0.612,0.761 0.656,0.7 0.726,0.665 0.778,0.63 0.84,0.595 0.892,0.525 0.901,0.446 0.909,0.35 0.892,0.262 0.77,0.175 0.647,0.096 0.472,0.122 0.394,0.14 0.306,0.157 0.28,0.149 0.254,0.131 0.21,0.105 0.184,0.044 0.219,-0.009 0.254,-0.061 0.35,-0.026 0.428,0 0.568,0.052 0.708,0.07 0.805,0.017 0.927,-0.044 0.918,-0.184 0.901,-0.28 0.875,-0.385 0.813,-0.437 0.726,-0.481 0.63,-0.525 0.595,-0.568 0.56,-0.63 0.525,-0.682 0.49,-0.726 0.411,-0.743 0.35,-0.77 0.219,-0.752 0.157,-0.691 c -0.078,0.088 -0.078,0.219 -0.061,0.28 0.018,0.087 0.026,0.131 0.026,0.166 0,0.026 -0.035,0.07 -0.052,0.07 -0.018,0 -0.026,-0.017 -0.044,-0.044 C 0.009,-0.262 0,-0.341 0,-0.42 L 0,0 z m 0,-0.796 0.035,0 C 0.017,-0.735 0,-0.621 0,-0.516 l 0,-0.28 z M -0.079,0.14 c -0.008,-0.009 -0.122,-0.053 -0.306,-0.219 -0.201,-0.175 -0.201,-0.323 -0.201,-0.358 0.009,-0.018 0.018,-0.026 0.026,-0.009 0.018,0.052 0.062,0.166 0.236,0.306 0.149,0.131 0.289,0.175 0.298,0.175 0,0 0.009,-0.018 0.026,-0.035 l 0,-0.42 0,-0.096 0,-0.28 c -0.061,0 -0.114,0 -0.175,0.009 0.131,0.07 0.14,0.42 0.131,0.56 -0.008,0.061 -0.026,0.07 -0.061,0.061 -0.035,-0.009 -0.052,-0.035 -0.035,-0.096 0.018,-0.062 0.035,-0.193 0.026,-0.298 0,-0.096 -0.07,-0.183 -0.183,-0.183 -0.123,0 -0.184,0.043 -0.236,0.096 -0.053,0.052 -0.088,0.131 -0.114,0.166 -0.044,0.061 -0.07,0.07 -0.149,0.131 -0.078,0.053 -0.131,0.123 -0.105,0.236 0.027,0.123 0.096,0.175 0.201,0.193 0.088,0.017 0.228,-0.009 0.306,-0.018 0.097,0 0.21,0.035 0.21,0.114 -0.008,0.079 -0.113,0.061 -0.244,0.052 -0.123,-0.008 -0.245,-0.026 -0.35,0.018 -0.105,0.044 -0.131,0.157 -0.131,0.219 0.008,0.087 0.026,0.148 0.096,0.192 0.07,0.052 0.166,0.087 0.218,0.122 0.062,0.044 0.088,0.097 0.132,0.158 0.043,0.043 0.166,0.105 0.253,0.07 0.053,-0.027 0.088,-0.079 0.131,-0.158 0.062,-0.105 0.062,-0.166 0.062,-0.411 0,-0.026 0.008,-0.07 0.017,-0.096 L 0,0.227 C -0.026,0.271 -0.079,0.367 -0.175,0.481 -0.289,0.621 -0.411,0.7 -0.481,0.708 -0.542,0.726 -0.595,0.717 -0.551,0.691 -0.498,0.665 -0.376,0.612 -0.245,0.446 -0.14,0.324 -0.079,0.14 -0.079,0.14"
         style="fill:#2e2e30;fill-opacity:1;fill-rule:evenodd;stroke:none"
         id="path1634"
         inkscape:connector-curvature="0" /></g><g
       id="g1636"
       transform="matrix(60,0,0,60,373.50729,463.3126)"><path
         d="M 0,0 0,0.079 C 0.07,0.096 0.096,0.096 0.105,0.105 0.114,0.105 0.122,0.087 0.087,0.052 0.061,0.035 0.026,0.017 0,0 m 0,0.105 c 0.052,0.009 0.114,0.017 0.122,0.017 0.018,0 0.018,0.009 0.035,0.027 0.018,0.026 0.009,0.043 -0.008,0.035 -0.027,0 -0.07,0 -0.149,-0.018 L 0,0.105 z m 0,0.079 0,0.07 C 0.061,0.262 0.122,0.271 0.14,0.271 0.175,0.271 0.175,0.254 0.175,0.236 0.175,0.227 0.166,0.21 0.149,0.201 0.14,0.201 0.07,0.201 0,0.184 M 0,0.271 C 0.087,0.289 0.157,0.289 0.157,0.297 0.166,0.306 0.175,0.315 0.166,0.332 0.166,0.35 0.149,0.35 0.14,0.35 0.122,0.35 0.07,0.35 0,0.341 L 0,0.271 z M 0,0.35 0,0.42 c 0.035,0.008 0.061,0.017 0.07,0.017 0.017,0 0.035,-0.009 0.052,-0.026 0.009,-0.017 0.009,-0.035 0,-0.044 0,0 -0.035,0 -0.122,-0.017 m 0,0.087 0,0.035 c 0.035,0 0.061,-0.017 0.017,-0.026 0,0 -0.008,-0.009 -0.017,-0.009 m 0,0.219 0,0.061 0.07,0 C 0.079,0.717 0.087,0.691 0.061,0.673 0.044,0.665 0.026,0.656 0,0.656 m 0,0.079 0,0.061 c 0.052,0.009 0.087,0.009 0.114,0.017 0.026,0 0.052,0.009 0.052,-0.017 0,-0.018 -0.017,-0.044 -0.044,-0.07 -0.008,0 -0.052,0 -0.122,0.009 M 0,0.813 C 0.087,0.822 0.157,0.831 0.175,0.84 0.184,0.848 0.184,0.866 0.184,0.883 0.184,0.909 0.166,0.909 0.157,0.909 0.149,0.909 0.07,0.892 0,0.883 l 0,-0.07 z m 0,0.088 0,0.07 0.026,0 C 0.096,0.979 0.122,0.997 0.14,0.988 0.149,0.988 0.166,0.944 0.157,0.936 0.149,0.918 0.087,0.909 0.017,0.901 L 0,0.901 z m 0,0.078 0,0 C 0.061,0.988 0.105,1.006 0.114,1.006 0.114,1.014 0.105,1.032 0.079,1.058 0.052,1.076 0.044,1.076 0.035,1.076 0.026,1.076 0.017,1.067 0,1.058 L 0,0.979 z M 0,1.076 0,1.111 0.017,1.093 C 0.017,1.084 0.009,1.084 0,1.076 M 0,1.111 0,1.076 c -0.009,0 -0.009,0 -0.017,-0.009 -0.027,0 -0.07,-0.009 -0.07,-0.009 0.008,0.061 0,0.096 -0.009,0.114 0,0.009 0,0.009 0.009,0.009 C -0.079,1.172 -0.052,1.154 -0.026,1.128 -0.017,1.119 -0.009,1.119 0,1.111 M 0,1.058 0,0.979 C -0.07,0.971 -0.114,0.971 -0.114,0.971 c 0.018,0.043 0.018,0.078 0.018,0.078 l 0.061,0 C -0.017,1.058 -0.009,1.058 0,1.058 M 0,0.971 0,0.901 C -0.07,0.892 -0.157,0.892 -0.157,0.892 c 0.017,0.035 0.035,0.07 0.035,0.07 0,0 0.061,0 0.122,0.009 m 0,-0.088 0,-0.07 -0.044,0 c -0.052,-0.008 -0.122,0 -0.148,0 l 0,0.035 c 0.008,0.018 0.017,0.026 0.017,0.026 0,0 0.061,0 0.166,0.009 l 0.009,0 z m 0,-0.087 0,-0.061 -0.07,0 c -0.052,0.008 -0.087,0.008 -0.122,0.008 l 0,0.053 0.052,0 0.14,0 z m 0,-0.079 0,-0.061 -0.035,0 C -0.079,0.665 -0.14,0.673 -0.192,0.682 l 0,0.053 C -0.166,0.726 -0.14,0.726 -0.096,0.726 -0.061,0.717 -0.026,0.717 0,0.717 M 0,0.472 0,0.437 C -0.035,0.428 -0.122,0.402 -0.192,0.385 l 0,0.061 c 0.008,0.009 0.017,0.009 0.026,0.009 0.07,0.017 0.122,0.026 0.166,0.017 M 0,0.42 C -0.044,0.411 -0.105,0.394 -0.166,0.376 l -0.026,-0.009 0,-0.061 c 0.052,0.018 0.105,0.026 0.157,0.044 L 0,0.35 0,0.42 z M 0,0.341 0,0.271 C -0.017,0.262 -0.035,0.262 -0.052,0.254 -0.096,0.245 -0.149,0.227 -0.192,0.21 l 0,0.079 C -0.175,0.297 -0.14,0.306 -0.114,0.315 -0.07,0.324 -0.035,0.332 0,0.341 M 0,0.254 C -0.026,0.245 -0.052,0.236 -0.079,0.227 -0.114,0.219 -0.157,0.201 -0.192,0.192 l 0,-0.078 c 0.026,0.008 0.078,0.035 0.148,0.052 0.009,0.009 0.027,0.009 0.044,0.018 l 0,0.07 z M 0,0.166 0,0.105 C -0.017,0.096 -0.026,0.096 -0.035,0.087 -0.096,0.07 -0.149,0.026 -0.149,0.026 c 0,0 -0.026,0.009 -0.043,0.026 l 0,0.035 c 0.026,0.018 0.087,0.044 0.157,0.062 0.009,0.008 0.026,0.008 0.035,0.017 m 0,-0.087 -0.009,0 C -0.087,0.052 -0.131,0.017 -0.131,0.017 -0.07,-0.017 -0.052,-0.026 -0.035,-0.009 -0.017,-0.009 -0.009,0 0,0 l 0,0.079 z m -0.192,-0.263 0,0.027 0,-0.027 z m 0,0.097 0,0.043 c 0.043,-0.008 0.078,-0.008 0.078,-0.008 l 0.009,-0.009 c 0,0 -0.009,-0.009 -0.026,-0.044 -0.026,-0.026 -0.035,-0.035 -0.044,-0.035 -0.009,0 -0.009,0.009 -0.017,0.035 l 0,0.018 z m 0,0.682 c 0.043,0 0.087,0 0.122,0.008 0.026,0 0.061,0.035 0.026,0.044 -0.026,0 -0.087,0.009 -0.148,0.018 l 0,-0.07 z m 0,0.446 0,0.279 c 0.008,-0.008 0.017,-0.017 0.017,-0.026 0.009,-0.009 0.009,-0.052 0.018,-0.096 0,-0.035 0.008,-0.07 0.008,-0.07 C -0.166,1.093 -0.192,1.049 -0.192,1.041 m 0,0.279 0,-0.279 -0.009,0 c 0,0 -0.009,0.017 -0.018,0.052 l 0,0.227 c 0,0.009 0.009,0.009 0.009,0.009 0,-0.009 0.009,-0.009 0.018,-0.009 m 0,-0.472 0,-0.035 c -0.018,0 -0.018,0.009 -0.027,0.009 0.009,0.009 0.018,0.018 0.027,0.026 m 0,-0.052 0,-0.053 -0.027,0.009 0,0.053 0.027,-0.009 z m 0,-0.114 -0.026,0 0,0.052 0.026,0 0,-0.052 z m 0,-0.017 0,-0.07 C -0.201,0.603 -0.21,0.603 -0.219,0.603 l 0,0.062 0.027,0 z m 0,-0.219 0,-0.061 -0.027,-0.009 0,0.07 0.027,0 z m 0,-0.079 0,-0.061 -0.027,-0.009 0,0.062 0.027,0.008 z m 0,-0.078 0,-0.079 -0.027,-0.009 0,0.079 0.027,0.009 z m 0,-0.097 0,-0.078 C -0.201,0.105 -0.21,0.105 -0.219,0.105 l 0,-0.009 0,0.088 0.027,0.008 z m 0,-0.105 0,-0.035 c -0.009,0 -0.018,0.009 -0.027,0.009 l 0,0.018 c 0.009,0 0.018,0.008 0.027,0.008 m 0,-0.131 0,-0.043 c -0.009,0.026 -0.009,0.043 -0.009,0.043 l 0.009,0 z m 0,-0.113 c -0.009,0 -0.009,0.008 -0.009,0.008 -0.009,0.027 -0.018,0.062 -0.018,0.079 l 0,0.035 0,-0.184 c 0.009,0.018 0.018,0.027 0.027,0.035 l 0,0.027 z m -0.027,1.163 c 0.009,0.008 0.009,0.008 0.009,0.017 0,0 0,0.009 -0.009,0.018 l 0,-0.035 z m 0,0.314 0,-0.227 0,0.009 c -0.008,0.035 -0.008,0.14 -0.008,0.175 0,0.026 0.008,0.043 0.008,0.043 m 0,-0.279 c 0,0.008 -0.008,0.035 -0.017,0.061 -0.009,0.052 -0.009,0.14 -0.009,0.175 0,0.035 0.009,0.061 0,0.07 -0.017,0.008 -0.035,0.017 -0.044,0.017 l 0,-0.288 c 0.009,-0.088 0.035,-0.123 0.035,-0.123 0,0 0.018,0.018 0.035,0.053 l 0,0.035 z m 0,-0.219 z m 0,-0.017 0,-0.053 c -0.035,0 -0.061,0.009 -0.061,0.009 0,0 0.009,0 0.026,0.017 0.009,0.018 0.018,0.027 0.018,0.027 l 0.017,0 z m 0,-0.07 0,-0.053 c -0.026,0 -0.052,0.009 -0.07,0.009 l 0,0.052 c 0,0 0.018,0 0.07,-0.008 m 0,-0.07 0,-0.062 -0.017,0 -0.053,0.009 0,0.061 c 0.018,0 0.044,-0.008 0.07,-0.008 m 0,-0.219 0,-0.07 C -0.245,0.367 -0.271,0.359 -0.289,0.35 l 0,0.07 c 0.018,0.008 0.044,0.017 0.07,0.026 m 0,-0.087 C -0.245,0.35 -0.271,0.341 -0.289,0.332 l 0,-0.061 c 0.018,0.009 0.044,0.018 0.07,0.026 l 0,0.062 z m 0,-0.079 0,-0.079 C -0.245,0.192 -0.271,0.175 -0.289,0.166 l 0,0.088 c 0.018,0.008 0.044,0.017 0.07,0.026 m 0,-0.096 C -0.245,0.166 -0.271,0.157 -0.289,0.149 l 0,-0.035 c 0.018,-0.018 0.044,-0.027 0.044,-0.027 l 0.026,0.009 0,0.088 z m 0,-0.105 0,-0.018 c 0,0.009 -0.008,0.009 -0.008,0.009 0,0 0,0.009 0.008,0.009 m 0,-0.114 0,-0.184 c -0.017,-0.017 -0.035,-0.026 -0.043,-0.017 -0.018,0 -0.018,0.009 -0.027,0.079 l 0,0.017 0,0.131 c 0.027,-0.017 0.07,-0.026 0.07,-0.026 m -0.07,0.944 0,0.088 C -0.28,0.962 -0.271,0.936 -0.271,0.936 -0.28,0.927 -0.289,0.918 -0.289,0.909 m 0,0.455 0,-0.288 c -0.008,0.008 -0.008,0.008 -0.008,0.017 l 0,0.271 0.008,0 z m 0,-0.367 0,-0.088 -0.008,-0.008 0,0.113 0.008,-0.017 z m 0,-0.254 0,-0.052 -0.008,0 0,0.044 0.008,0.008 z m 0,-0.131 -0.009,0 0,0.061 0.009,0 0,-0.061 z m 0,-0.192 0,-0.07 -0.008,0 0,0.061 0.008,0.009 z m 0,-0.149 -0.009,0 0,0.061 0.009,0 0,-0.061 z m 0,-0.105 -0.009,0 0,0.087 0.009,0 0,-0.087 z m 0,-0.017 0,-0.035 -0.008,0.008 0,0.027 0.008,0 z m 0,-0.158 0,-0.131 c -0.008,0.009 -0.008,0.018 -0.008,0.035 l 0,0.096 0.008,0 z m -0.008,-0.253 0,0.026 c 0,-0.009 0.008,-0.018 0.008,-0.018 l -0.008,-0.008 z m 0,1.626 0,-0.271 0,0.026 c -0.009,0.044 -0.018,0.166 -0.018,0.201 0,0.035 0,0.044 0.018,0.044 m 0,-0.35 c -0.009,0.027 -0.018,0.062 -0.018,0.097 -0.017,0.122 -0.017,0.218 -0.017,0.236 0,0.026 0,0.035 -0.018,0.035 l -0.017,0 0,-0.403 c 0.017,-0.07 0.043,-0.105 0.043,-0.105 0,0 0.009,0.009 0.027,0.027 l 0,0.113 z m 0,-0.279 0,-0.044 C -0.324,0.7 -0.341,0.7 -0.341,0.7 c 0,0 0.026,0.026 0.044,0.035 m 0,-0.062 0,-0.061 c -0.027,0.009 -0.053,0.009 -0.07,0.009 l 0,0.052 0.017,0.009 c 0,0 0.009,0 0.053,-0.009 m 0,-0.262 0,-0.061 C -0.324,0.341 -0.35,0.341 -0.359,0.332 l -0.008,0 0,0.062 c 0.026,0.008 0.043,0.008 0.07,0.017 m 0,-0.079 C -0.324,0.324 -0.341,0.315 -0.367,0.315 l 0,-0.07 0.026,0.009 c 0.009,0 0.026,0.008 0.044,0.017 l 0,0.061 z m 0,-0.078 0,-0.088 C -0.324,0.157 -0.332,0.149 -0.332,0.149 l -0.035,0.035 0,0.035 c 0.017,0.008 0.043,0.017 0.07,0.035 m 0,-0.105 0,-0.027 C -0.306,0.131 -0.315,0.131 -0.315,0.14 l 0.018,0.009 z m 0,-0.158 0,-0.096 0,0.096 z m 0,-0.227 c -0.009,0.035 -0.018,0.096 -0.018,0.149 -0.009,0.07 -0.009,0.096 -0.009,0.096 0,0 -0.017,0.008 -0.043,0.026 l 0,-0.306 0.035,0 c 0.017,0 0.035,0.009 0.035,0.009 l 0,0.026 z m -0.07,1.067 0,0.087 C -0.35,0.883 -0.341,0.857 -0.341,0.857 -0.35,0.848 -0.359,0.84 -0.367,0.831 m 0,0.551 0,-0.403 c -0.009,0.035 -0.009,0.07 -0.018,0.114 -0.009,0.079 0,0.236 0,0.262 0,0.018 0,0.027 0.018,0.027 m 0,-0.464 c -0.009,0.035 -0.027,0.088 -0.035,0.131 -0.009,0.123 -0.009,0.263 0,0.298 0,0.035 -0.018,0.035 -0.044,0.026 l -0.009,0 0,-0.437 c 0.009,-0.018 0.009,-0.035 0.018,-0.053 0.017,-0.061 0.035,-0.078 0.035,-0.078 0,0 0.017,0.017 0.035,0.026 l 0,0.087 z m 0,-0.245 0,-0.052 -0.018,0 c -0.035,0 -0.052,0.009 -0.035,0.017 0.018,0.009 0.026,0.018 0.053,0.035 m 0,-0.279 0,-0.062 C -0.411,0.315 -0.437,0.306 -0.455,0.297 l 0,0.088 0.061,0 c 0.009,0.009 0.018,0.009 0.027,0.009 m 0,-0.079 C -0.411,0.297 -0.446,0.28 -0.455,0.28 -0.437,0.254 -0.402,0.227 -0.402,0.227 l 0.035,0.018 0,0.07 z m 0,-0.096 0,-0.035 -0.027,0.026 c 0,0 0.009,0.009 0.027,0.009 m 0,-0.184 0,-0.306 c -0.009,0 -0.018,0 -0.018,0.009 0,0 0,0.035 -0.009,0.131 l 0,0.192 c 0.009,-0.009 0.018,-0.017 0.027,-0.026 m -0.088,-0.28 0,0.35 C -0.437,0.096 -0.42,0.079 -0.42,0.079 l 0,-0.088 c 0,-0.052 0.009,-0.201 0.009,-0.227 0,-0.026 -0.009,-0.018 -0.044,-0.009 m 0,1.015 0,0.096 C -0.437,0.822 -0.42,0.787 -0.42,0.787 -0.428,0.787 -0.437,0.778 -0.455,0.77 m 0,0.603 0,-0.437 c -0.008,0.07 -0.017,0.131 -0.026,0.183 0,0.079 -0.009,0.201 0,0.219 0,0.009 0.009,0.026 0.026,0.035 m 0,-0.507 c 0,0.017 -0.008,0.043 -0.017,0.061 -0.026,0.105 -0.026,0.175 -0.026,0.245 -0.009,0.096 0,0.14 -0.018,0.14 0,0 -0.009,0 -0.026,-0.009 l 0,-0.42 c 0.009,-0.026 0.017,-0.052 0.035,-0.07 0.017,-0.052 0.026,-0.061 0.026,-0.061 0,0 0.018,0.009 0.026,0.018 l 0,0.096 z m 0,-0.481 0,-0.088 -0.008,0 c 0,0 -0.053,0.07 -0.079,0.123 0.009,-0.009 0.044,-0.026 0.087,-0.035 m 0,-0.105 z m 0,-0.175 0,-0.35 c -0.026,0.009 -0.035,0.026 -0.035,0.044 0,0.017 0.009,0.131 0.009,0.201 l 0,0.131 c 0.009,0 0.018,-0.009 0.026,-0.026 m -0.087,-0.262 0,0.323 0,0.035 c 0.026,-0.026 0.044,-0.052 0.044,-0.052 l 0,-0.044 c -0.009,-0.044 -0.009,-0.131 -0.009,-0.192 0,-0.07 0,-0.079 -0.009,-0.079 0,-0.009 -0.009,-0.009 -0.026,0.009 m 0,0.874 0,0.105 c 0.009,0 0.009,-0.009 0.009,-0.009 l 0.035,-0.07 C -0.507,0.735 -0.525,0.726 -0.542,0.717 m 0,0.586 0,-0.42 c -0.018,0.07 -0.035,0.14 -0.035,0.193 -0.009,0.105 -0.009,0.148 0.009,0.183 0.008,0.018 0.017,0.026 0.026,0.044 m 0,-0.481 0,-0.105 C -0.56,0.708 -0.568,0.7 -0.568,0.7 c 0,0 -0.018,0.017 -0.018,0.026 0.009,0.009 0.009,0.044 0.018,0.087 0.008,0.027 0.017,0.027 0.026,0.009 m 0,-0.402 z m 0,-0.254 0,-0.323 c 0,0.008 -0.009,0.008 -0.009,0.026 -0.017,0.035 -0.017,0.087 -0.009,0.122 0,0.035 0.009,0.105 0.018,0.149 l 0,0.026 z m -0.228,0.674 0,0.069 c 0,0.009 0.009,0.018 0.009,0.027 0.018,0.035 0.018,0.061 0.026,0.052 0.009,-0.017 0,-0.07 0.009,-0.105 0,-0.043 0,-0.078 -0.009,-0.078 l 0,-0.009 c 0,0 -0.008,0.009 -0.035,0.044 m 0,0.148 c 0.009,0.018 0.009,0.035 0.018,0.053 0.009,0.07 0,0.113 -0.018,0.166 l 0,-0.219 z m 0,0.219 0,-0.219 C -0.787,0.936 -0.805,0.883 -0.805,0.883 c 0,0 -0.017,0.035 -0.043,0.061 l 0,0.044 c 0,0.026 0.008,0.061 0.017,0.123 0.009,0.122 0.009,0.174 0.018,0.174 0.008,0 0.026,-0.008 0.043,-0.069 l 0,-0.009 z m 0,-0.298 C -0.778,0.883 -0.787,0.866 -0.787,0.866 l 0.017,-0.026 0,0.069 z m -0.078,-1.04 0,0.218 0,-0.017 c 0.008,-0.087 0.017,-0.149 0,-0.201 m 0,0.455 0,0.096 c 0.017,0.008 0.026,0.008 0.026,0.008 L -0.813,0.402 C -0.805,0.376 -0.822,0.341 -0.84,0.324 l -0.008,0 z m 0,0.376 0,0.035 C -0.84,0.708 -0.831,0.691 -0.831,0.691 L -0.848,0.7 z m 0,0.489 c 0.008,0.07 0.008,0.131 0.008,0.149 0,0.009 -0.008,0.009 -0.008,0.017 l 0,-0.166 z m 0,0.166 0,-0.166 -0.009,-0.07 c -0.009,-0.105 -0.017,-0.14 -0.017,-0.14 -0.035,0.035 -0.07,0.062 -0.07,0.062 0,0 0.008,0.017 0.008,0.043 l 0,0.193 c 0,0.096 -0.008,0.14 0,0.14 0,0.008 0.018,0.017 0.044,-0.009 0.018,-0.009 0.035,-0.035 0.044,-0.053 m 0,-0.367 C -0.857,0.971 -0.857,0.953 -0.857,0.953 l 0.009,-0.009 0,0.044 z m 0,-0.253 0,-0.035 -0.018,0 c -0.017,0.008 -0.043,0.008 -0.078,0.008 l 0,0.062 c 0.035,0.008 0.07,0.017 0.07,0.017 0.008,-0.017 0.017,-0.035 0.026,-0.052 m 0,-0.315 0,-0.096 c -0.018,-0.009 -0.026,-0.009 -0.026,0.008 -0.009,0.027 -0.018,0.053 -0.018,0.053 0.009,0.009 0.026,0.026 0.044,0.035 m 0,-0.333 c -0.018,0.105 -0.07,0.289 -0.07,0.289 0,0 -0.009,-0.009 -0.026,-0.017 l 0,-0.175 c 0.008,-0.035 0.017,-0.079 0.026,-0.123 0.026,-0.14 0.035,-0.218 0.035,-0.236 0,-0.017 0.017,-0.009 0.026,0.026 0.009,0 0.009,0.009 0.009,0.018 l 0,0.218 z m -0.096,-0.332 0,0.341 0.008,-0.044 c 0.009,-0.061 0.018,-0.104 0.027,-0.192 0,-0.035 0.008,-0.079 -0.018,-0.096 -0.009,-0.009 -0.009,-0.009 -0.017,-0.009 m 0,1.032 0,0.079 0.008,0.008 c 0.018,-0.026 0.053,-0.078 0.053,-0.078 0,0 -0.026,0 -0.061,-0.009 m 0,0.079 0,-0.079 c -0.027,0 -0.053,-0.009 -0.079,-0.017 l 0,0.087 c 0.035,0 0.061,0.009 0.079,0.009 m 0,-0.096 0,-0.062 -0.07,0 -0.009,0 0,0.044 0.009,0.009 c 0.026,0 0.043,0.009 0.07,0.009 m 0,-0.411 0,-0.175 c -0.018,0.087 -0.035,0.14 -0.035,0.14 0.008,0.017 0.026,0.026 0.035,0.035 m 0,-0.263 c -0.027,0.14 -0.053,0.219 -0.053,0.219 0,0 -0.009,-0.009 -0.026,-0.018 l 0,-0.131 c 0.017,-0.052 0.035,-0.122 0.035,-0.192 0.026,-0.166 0.017,-0.193 0.017,-0.21 0,-0.009 0.009,-0.018 0.027,-0.009 l 0,0.341 z m -0.079,-0.358 0,0.349 0.009,-0.026 c 0.026,-0.122 0.026,-0.245 0.026,-0.28 0,-0.026 -0.009,-0.043 -0.035,-0.043 m 0,0.708 0,0.052 0.035,0 c 0.017,0 0.035,0 0.017,-0.008 C -0.988,0.481 -1.006,0.463 -1.023,0.446 m 0,0.428 0,0.07 0.017,0.009 c 0.027,-0.026 0.062,-0.07 0.062,-0.07 0,0 -0.027,0 -0.079,-0.009 m 0,0.438 0,0.113 c 0.017,0.009 0.052,0.018 0.052,0.018 0.018,-0.009 0.018,-0.053 0.018,-0.175 0.009,-0.131 -0.009,-0.21 -0.009,-0.21 -0.026,0.026 -0.052,0.044 -0.052,0.044 l 0,0.14 c 0,0.026 0,0.043 -0.009,0.07 m 0,0.113 0,-0.113 c 0,0.052 -0.009,0.087 -0.009,0.096 0.009,0.009 0.009,0.009 0.009,0.017 m 0,-0.481 0,-0.07 c -0.009,0 -0.018,-0.008 -0.035,-0.008 l 0,0.078 0.035,0 z m 0,-0.087 0,-0.087 c -0.009,0 -0.018,0 -0.035,-0.009 l 0,0.087 c 0.017,0 0.026,0 0.035,0.009 m 0,-0.105 0,-0.044 -0.035,0 0,0.035 c 0.009,0 0.026,0.009 0.035,0.009 m 0,-0.254 0,-0.052 -0.009,0 c 0,0 0,0.009 -0.026,0.017 l 0,0.027 c 0.017,0 0.026,0.008 0.035,0.008 m 0,-0.201 0,-0.131 c -0.009,0.061 -0.026,0.105 -0.026,0.105 0.008,0.009 0.017,0.018 0.026,0.026 m 0,-0.21 C -1.041,0.166 -1.049,0.21 -1.058,0.236 l 0,-0.49 c 0.009,0 0.017,0 0.026,-0.008 l 0.009,0 0,0.349 z m -0.035,0.333 0,0.017 c 0.009,0 0.017,-0.009 0.017,-0.009 L -1.058,0.42 z m 0,0.542 0,0.035 c 0.017,-0.009 0.035,-0.026 0.035,-0.026 0,0 -0.018,0 -0.035,-0.009 m 0,0.166 c 0.009,0 0.017,-0.009 0.026,-0.009 l 0,0.123 c -0.009,0.061 -0.009,0.131 -0.017,0.148 0,0.009 0,0.009 -0.009,0.018 l 0,-0.28 z m 0,0.28 0,-0.28 c -0.018,0.018 -0.035,0.026 -0.035,0.026 0,0 0,0.035 -0.009,0.088 l 0,0.148 c 0.009,0 0.018,0.009 0.026,0.009 0.009,0.009 0.018,0.009 0.018,0.009 m 0,-0.411 0,-0.035 c -0.009,0 -0.026,-0.009 -0.044,-0.009 l 0,0.079 0.009,0 c 0.017,-0.009 0.026,-0.018 0.035,-0.035 m 0,-0.053 0,-0.078 C -1.067,0.857 -1.084,0.857 -1.102,0.848 l 0,0.079 c 0.018,0.009 0.035,0.009 0.044,0.017 m 0,-0.096 0,-0.087 -0.018,0 C -1.084,0.752 -1.093,0.752 -1.102,0.743 l 0,0.088 c 0.018,0.009 0.026,0.009 0.044,0.017 m 0,-0.105 0,-0.035 c -0.018,0 -0.026,0 -0.026,0.009 -0.009,0 0,0.009 0.026,0.026 m 0,-0.253 0,-0.027 -0.009,0.009 C -1.084,0.481 -1.093,0.481 -1.102,0.49 l 0,0.008 c 0.018,0 0.026,-0.008 0.035,-0.008 l 0.009,0 z m 0,-0.053 c -0.009,0.009 -0.026,0.018 -0.044,0.026 l 0,-0.078 0.009,0 0.035,0.035 0,0.017 z m 0,-0.201 0,-0.49 c -0.009,0.009 -0.009,0.018 -0.009,0.027 0,0.008 0.009,0.061 0.009,0.175 -0.009,0.087 -0.026,0.157 -0.044,0.201 l 0,0.07 c 0.026,0.026 0.044,0.035 0.044,0.035 l 0,-0.018 z m -0.044,-0.472 0.009,0.009 c 0.009,0.008 0.017,0.087 0.017,0.14 -0.008,0.043 -0.008,0.122 -0.026,0.174 l 0,-0.323 z m 0,1.626 0,-0.148 0,0.009 c 0,0.052 -0.009,0.104 -0.009,0.113 0,0.009 0.009,0.018 0.009,0.026 m 0,-0.358 0,-0.079 C -1.119,0.944 -1.146,0.936 -1.172,0.927 l 0,0.07 c 0.035,0.017 0.061,0.026 0.07,0.035 m 0,-0.105 C -1.119,0.918 -1.146,0.918 -1.172,0.901 l 0,-0.079 c 0.018,0.009 0.026,0.009 0.044,0.018 0.009,0.008 0.017,0.008 0.026,0.008 l 0,0.079 z m 0,-0.096 0,-0.088 C -1.146,0.726 -1.163,0.708 -1.172,0.7 l 0,0.105 c 0.026,0.008 0.044,0.017 0.07,0.026 m 0,-0.333 0,-0.008 c 0,0 -0.009,0 -0.009,0.008 l 0.009,0 z m 0,-0.035 C -1.111,0.472 -1.128,0.481 -1.137,0.481 -1.146,0.49 -1.163,0.49 -1.172,0.498 l 0,-0.078 c 0.053,-0.018 0.07,-0.026 0.07,-0.035 l 0,0.078 z m 0,-0.244 0,-0.07 c -0.009,0.035 -0.017,0.052 -0.017,0.052 0.008,0.009 0.017,0.009 0.017,0.018 m 0,-0.132 0,0.027 c -0.017,0.052 -0.026,0.07 -0.026,0.07 0,0 -0.018,-0.018 -0.044,-0.053 l 0,-0.035 c 0.009,-0.026 0.026,-0.07 0.026,-0.131 0.009,-0.096 0,-0.14 0,-0.149 0,-0.017 0,-0.026 0.009,-0.035 0.018,-0.008 0.026,-0.017 0.035,-0.017 l 0,0.323 z m -0.07,-0.262 0,0.201 0,-0.009 c 0.009,-0.052 0.009,-0.166 0.009,-0.183 0,-0.009 0,-0.009 -0.009,-0.009 m 0,0.481 0,0.026 c 0.009,-0.008 0.018,-0.008 0.018,-0.008 0,0 -0.009,0 -0.018,-0.018 m 0,0.035 0,0.061 c 0.009,0 0.018,0 0.018,-0.008 0.035,-0.009 0.043,-0.018 0.043,-0.018 0,0 -0.008,-0.009 -0.035,-0.035 l -0.026,0 z m 0,0.673 c 0.035,0.018 0.061,0.027 0.061,0.027 0,0 -0.035,0.026 -0.061,0.043 l 0,-0.07 z m 0,0.167 c 0.018,0 0.035,-0.009 0.061,-0.018 0,0 0,0.053 -0.008,0.096 0,0.044 -0.009,0.088 -0.018,0.096 -0.009,0 -0.017,-0.008 -0.035,-0.026 l 0,-0.148 z m -0.035,-0.088 0.009,0.009 -0.009,0.009 0,-0.018 z m 0.035,0.236 0,-0.148 -0.009,0 c 0,0 0,0.017 -0.008,0.052 0,0.035 -0.009,0.052 -0.009,0.061 0.009,0 0.017,0.018 0.026,0.035 m 0,-0.245 0,-0.07 -0.035,-0.017 0,0.079 c 0.018,0.008 0.026,0.017 0.026,0.017 l 0.009,-0.009 z m 0,-0.087 0,-0.07 c -0.009,0 -0.026,-0.009 -0.035,-0.018 l 0,0.07 0.035,0.018 z m 0,-0.096 0,-0.079 C -1.181,0.813 -1.198,0.813 -1.207,0.805 l 0,0.087 c 0.009,0 0.026,0.009 0.035,0.009 m 0,-0.096 0,-0.105 -0.035,0 0,0.078 c 0.009,0.009 0.026,0.018 0.035,0.027 m 0,-0.307 0,-0.078 c -0.009,0 -0.026,0.008 -0.035,0.008 l 0,0.079 c 0.009,-0.009 0.026,-0.009 0.035,-0.009 m 0,-0.096 0,-0.061 C -1.181,0.35 -1.189,0.35 -1.207,0.35 l 0,0.061 c 0.009,0 0.026,0 0.035,-0.009 m 0,-0.07 0,-0.026 C -1.181,0.297 -1.189,0.28 -1.198,0.271 l -0.009,0 0,0.07 c 0.018,-0.009 0.026,-0.009 0.035,-0.009 m 0,-0.201 0,-0.035 c 0,0.018 -0.009,0.018 -0.009,0.018 l 0.009,0.017 z m 0,-0.105 c -0.009,0.044 -0.017,0.07 -0.017,0.07 0,0 -0.009,-0.009 -0.018,-0.035 l 0,-0.201 0,-0.009 c 0.018,-0.017 0.035,-0.026 0.035,-0.026 l 0,0.201 z m -0.035,1.163 0,0.062 0,-0.018 c 0.009,-0.026 0.009,-0.044 0.009,-0.044 l -0.009,0 z M -1.259,1.137 c 0,0 -0.026,-0.009 -0.061,-0.018 l 0,-0.07 0.017,0.009 c 0.044,0.018 0.079,0.026 0.096,0.035 l 0,0.018 c -0.017,0.008 -0.035,0.017 -0.052,0.026 m 0.052,0.114 0,-0.062 -0.044,0 0,0.018 c 0,0.009 0.009,0.035 0.027,0.044 0.008,0.008 0.008,0.008 0.017,0 m 0,-0.175 0,-0.079 C -1.242,0.988 -1.285,0.962 -1.32,0.944 l 0,0.088 c 0.043,0.017 0.087,0.035 0.113,0.044 m 0,-0.097 C -1.251,0.962 -1.285,0.944 -1.32,0.927 l 0,-0.07 c 0.026,0.017 0.052,0.026 0.078,0.044 0.009,0 0.018,0.008 0.035,0.008 l 0,0.07 z m 0,-0.087 0,-0.087 C -1.259,0.778 -1.294,0.752 -1.32,0.735 l 0,0.105 c 0.035,0.017 0.069,0.034 0.104,0.043 l 0.009,0.009 z m 0,-0.114 C -1.242,0.761 -1.268,0.743 -1.285,0.726 -1.32,0.7 -1.32,0.691 -1.277,0.691 c 0.026,0 0.053,0 0.07,0.009 l 0,0.078 z m 0,-0.271 0,-0.079 -0.017,0.009 c -0.035,0.009 -0.07,0.009 -0.096,0.009 l 0,0.07 c 0.043,0 0.078,0 0.113,-0.009 m 0,-0.096 C -1.242,0.42 -1.285,0.428 -1.32,0.437 l 0,-0.07 0.017,0 c 0.035,0 0.07,-0.008 0.096,-0.017 l 0,0.061 z m 0,-0.07 0,-0.07 C -1.224,0.28 -1.259,0.289 -1.32,0.297 l 0,0.053 0.061,0 c 0.017,-0.009 0.035,-0.009 0.052,-0.009 m 0,-0.28 0,-0.201 c -0.017,0.018 -0.017,0.035 -0.017,0.079 0.008,0.044 0,0.078 0,0.078 0,0.018 0.008,0.027 0.017,0.044 m -0.113,-0.052 0,0.043 0.026,0 0,-0.035 c 0,0 0,-0.008 -0.009,-0.008 l -0.017,0 z m 0,0.061 0,0.052 0.043,0 c 0,0 -0.008,-0.017 -0.008,-0.052 l -0.035,0 z m 0,0.07 0,0.07 0.017,0 c 0.044,-0.009 0.052,-0.009 0.052,-0.009 0,0 -0.008,-0.017 -0.026,-0.061 l -0.043,0 z m 0,0.087 c 0.061,0 0.078,-0.017 0.078,-0.017 0.018,0.017 0.035,0.044 0.035,0.044 0,0 -0.052,0.017 -0.113,0.026 l 0,-0.053 z m 0,0.892 C -1.338,1.111 -1.355,1.102 -1.373,1.093 l 0,-0.07 c 0.018,0.009 0.035,0.018 0.053,0.026 l 0,0.07 z m 0,-0.087 0,-0.088 -0.009,0 C -1.347,0.936 -1.355,0.927 -1.373,0.918 l 0,0.088 c 0.018,0.008 0.035,0.017 0.053,0.026 m 0,-0.105 -0.009,0 C -1.338,0.918 -1.355,0.909 -1.373,0.901 l 0,-0.07 c 0.018,0.009 0.035,0.017 0.053,0.026 l 0,0.07 z m 0,-0.087 0,-0.105 -0.009,-0.009 C -1.347,0.708 -1.355,0.7 -1.373,0.7 l 0,0.105 c 0.018,0.008 0.035,0.017 0.053,0.035 m 0,-0.324 0,-0.07 c -0.018,0.009 -0.035,0.009 -0.053,0.009 l 0,0.052 c 0.009,0.009 0.026,0.009 0.035,0.009 l 0.018,0 z m 0,-0.079 0,-0.07 -0.053,0 0,0.07 0.018,0 0.035,0 z m 0,-0.087 0,-0.053 -0.035,0 -0.018,0 0,0.053 0.053,0 z m 0,-0.07 0,-0.053 -0.018,0 -0.035,0 0,0.053 0.053,0 z m 0,-0.07 0,-0.07 -0.044,0 -0.009,-0.009 0,0.079 0.053,0 z m 0,-0.088 0,-0.052 c 0,0 -0.009,-0.009 -0.018,-0.009 -0.017,0 -0.026,-0.009 -0.035,-0.009 l 0,0.062 0.026,0 c 0.009,0.008 0.018,0.008 0.027,0.008 m 0,-0.07 0,-0.043 c 0,0 -0.009,0.008 -0.018,0.017 -0.017,0.009 0,0.018 0.018,0.026 m -0.053,1.067 0,0.018 c 0.035,0.017 0.035,0 0.035,0 L -1.373,1.119 z m 0,-0.026 C -1.39,1.084 -1.408,1.076 -1.425,1.067 -1.504,1.032 -1.522,1.032 -1.539,0.988 -1.557,0.953 -1.548,0.936 -1.53,0.944 c 0.026,0.018 0.096,0.053 0.157,0.079 l 0,0.07 z m 0,0.044 0,-0.018 L -1.39,1.111 C -1.452,1.084 -1.469,1.076 -1.469,1.076 c 0,0.026 0.035,0.035 0.079,0.061 l 0.017,0 z m 0,-0.131 0,-0.088 C -1.452,0.874 -1.495,0.84 -1.513,0.831 c -0.017,-0.009 -0.026,0 -0.035,0.026 0,0.026 0,0.044 0.009,0.061 0.009,0.009 0.087,0.044 0.166,0.088 m 0,-0.105 c -0.07,-0.044 -0.131,-0.079 -0.14,-0.096 0,-0.009 0,-0.018 0.018,-0.035 0.017,-0.018 0.035,0 0.061,0.017 0.009,0.009 0.035,0.026 0.061,0.044 l 0,0.07 z m 0,-0.096 0,-0.105 c -0.009,0 -0.017,0.008 -0.035,0.008 -0.044,0.009 -0.052,0.027 -0.044,0.044 0.009,0.009 0.044,0.026 0.079,0.053 m 0,-0.298 0,-0.052 -0.044,0 c -0.035,0 -0.043,0.008 -0.035,0.017 0,0 0.027,0.026 0.079,0.035 m 0,-0.07 0,-0.07 -0.131,0 c -0.044,-0.008 -0.044,0 -0.035,0.018 0.009,0.017 0.017,0.043 0.035,0.052 0.017,0.009 0.07,0.009 0.131,0 m 0,-0.087 0,-0.053 c -0.087,0 -0.131,0 -0.149,-0.008 -0.026,0 -0.035,0 -0.026,0.017 0,0.026 0,0.035 0.035,0.044 l 0.14,0 z m 0,-0.07 0,-0.053 c -0.044,0 -0.079,-0.008 -0.105,-0.026 -0.035,-0.009 -0.044,-0.017 -0.052,0 -0.009,0.018 -0.009,0.026 -0.018,0.035 0,0.009 -0.009,0.035 0.018,0.035 0.026,0.009 0.096,0.009 0.157,0.009 m 0,-0.07 C -1.417,0.21 -1.443,0.201 -1.469,0.192 -1.504,0.175 -1.504,0.166 -1.495,0.149 -1.478,0.14 -1.46,0.122 -1.443,0.114 c 0.009,-0.009 0.018,0.008 0.07,0.017 l 0,0.079 z m 0,-0.096 0,-0.062 -0.009,0.009 c -0.017,0.018 -0.035,0.026 -0.035,0.026 0,0.009 0.018,0.018 0.044,0.027"
         style="fill:#00a650;fill-opacity:1;fill-rule:evenodd;stroke:none"
         id="path1638"
         inkscape:connector-curvature="0" /></g><g
       id="g1640"
       transform="matrix(60,0,0,60,317.36529,411.8926)"><path
         d="m 0,0 c 0,-0.009 -0.009,-0.009 -0.009,-0.009 l -0.017,0 L -0.035,0 0,0.184 0,0.192 -0.009,0.184 c 0,0 -0.008,0 -0.008,0.008 l -0.009,0.009 c -0.009,0 -0.009,0.009 0,0.009 l 0.035,0.026 0.017,0 0.009,0 c 0.009,0 0.009,-0.009 0.009,-0.009 L 0,0 z"
         style="fill:#ffffff;fill-opacity:1;fill-rule:evenodd;stroke:none"
         id="path1642"
         inkscape:connector-curvature="0" /></g><g
       id="g1644"
       transform="matrix(60,0,0,60,327.33129,421.8586)"><path
         d="m 0,0 0,0.017 c -0.009,0.009 -0.017,0.009 -0.017,0.009 l -0.009,0 0,0.035 0.009,0 C -0.009,0.052 -0.009,0.052 0,0.052 0.009,0.052 0.009,0.044 0.017,0.044 0.026,0.035 0.026,0.026 0.026,0.017 0.035,0.009 0.035,0 0.035,-0.009 l -0.009,-0.017 0,-0.026 c -0.009,0 -0.017,-0.009 -0.017,-0.018 0,0 0.008,0 0.008,-0.009 0,0 0.009,-0.008 0.009,-0.017 l 0,-0.009 0,-0.017 0,-0.018 c 0,-0.009 0,-0.017 -0.009,-0.026 0,-0.009 -0.008,-0.009 -0.008,-0.018 C 0,-0.192 -0.009,-0.192 -0.017,-0.192 l -0.009,0 0,0.026 c 0.009,0 0.009,0 0.017,0.009 0,0.008 0.009,0.008 0.009,0.026 l 0,0.009 c 0,0.017 0,0.017 -0.009,0.026 0,0.009 -0.008,0.009 -0.017,0.009 l 0,0.035 c 0.009,0 0.009,0.008 0.017,0.008 C 0,-0.035 0,-0.026 0,-0.017 L 0,0 z m -0.026,0.026 c 0,0 -0.009,0 -0.018,-0.009 0,0 -0.008,-0.008 -0.008,-0.017 l 0,-0.017 c 0,-0.009 0,-0.018 0.008,-0.027 0,0 0.009,-0.008 0.018,-0.008 l 0,-0.035 0,0.008 c -0.009,0 -0.018,-0.008 -0.026,-0.008 -0.009,-0.009 -0.009,-0.018 -0.009,-0.027 l 0,-0.017 c -0.009,-0.009 0,-0.018 0,-0.026 0.009,0 0.017,-0.009 0.026,-0.009 l 0.009,0 0,-0.026 -0.009,0 -0.026,0 c -0.009,0.008 -0.018,0.008 -0.018,0.017 -0.008,0 -0.008,0.009 -0.008,0.018 -0.009,0.008 -0.009,0.017 -0.009,0.026 l 0,0.017 c 0,0.009 0,0.009 0.009,0.018 l 0,0.009 c 0,0.008 0.008,0.008 0.008,0.017 0.009,0 0.009,0.009 0.018,0.009 -0.009,0.009 -0.009,0.009 -0.018,0.017 l 0,0.027 0,0.017 c 0,0.009 0,0.017 0.009,0.026 0,0.009 0.009,0.018 0.009,0.018 0.009,0.008 0.017,0.008 0.017,0.008 0.009,0 0.018,0.009 0.018,0.009 l 0,-0.035 z"
         style="fill:#ffffff;fill-opacity:1;fill-rule:evenodd;stroke:none"
         id="path1646"
         inkscape:connector-curvature="0" /></g><g
       id="g1648"
       transform="matrix(60,0,0,60,336.77529,421.8586)"><path
         d="m 0,0 c 0,0.009 -0.009,0.017 -0.009,0.017 -0.008,0.009 -0.017,0.009 -0.017,0.009 l 0,0.026 0.017,0 c 0,0 0.009,-0.008 0.018,-0.008 0,-0.009 0.008,-0.018 0.008,-0.018 C 0.026,0.017 0.026,0.009 0.026,0 l 0,-0.017 0,-0.027 C 0.017,-0.052 0.017,-0.061 0.009,-0.07 c 0.008,0 0.008,0 0.008,-0.009 0.009,0 0.009,-0.008 0.009,-0.008 0.009,-0.009 0.009,-0.009 0.009,-0.018 l 0,-0.009 0,-0.017 0,-0.026 c 0,-0.009 -0.009,-0.018 -0.018,-0.027 0,0 -0.008,-0.008 -0.017,-0.008 -0.009,-0.009 -0.009,-0.009 -0.017,-0.009 l -0.009,0 0,0.035 0.009,0 c 0.008,0 0.017,0 0.017,0.009 0.009,0.008 0.009,0.017 0.009,0.026 l 0,0.009 c 0,0.017 0,0.026 -0.009,0.026 -0.009,0.009 -0.017,0.009 -0.026,0.009 l 0,0.035 c 0.009,0 0.009,0 0.017,0.008 C 0,-0.035 0,-0.026 0,-0.017 L 0,0 z m -0.026,0.026 0,0 c -0.009,0 -0.018,0 -0.018,-0.009 -0.008,-0.008 -0.008,-0.008 -0.008,-0.026 l 0,-0.008 c 0,-0.018 0,-0.018 0.008,-0.027 0,-0.008 0.009,-0.008 0.018,-0.008 l 0,-0.035 c -0.009,0 -0.018,0 -0.018,-0.009 -0.008,-0.009 -0.008,-0.018 -0.008,-0.026 l 0,-0.009 c 0,-0.018 0,-0.026 0.008,-0.026 0,-0.009 0.009,-0.009 0.018,-0.009 l 0,-0.035 c -0.009,0 -0.009,0 -0.018,0.009 -0.008,0 -0.017,0 -0.017,0.008 -0.009,0 -0.009,0.009 -0.018,0.018 0,0.009 -0.008,0.017 -0.008,0.026 l 0,0.018 0,0.017 0.008,0.009 c 0,0.009 0,0.009 0.009,0.017 l 0.009,0.009 c -0.009,0.009 -0.009,0.009 -0.018,0.018 l 0,0.026 0,0.017 c -0.008,0.009 0,0.018 0,0.026 0,0.009 0.009,0.018 0.009,0.018 0.009,0.009 0.009,0.009 0.018,0.017 l 0.017,0 0.009,0 0,-0.026 z"
         style="fill:#ffffff;fill-opacity:1;fill-rule:evenodd;stroke:none"
         id="path1650"
         inkscape:connector-curvature="0" /></g><g
       id="g1652"
       transform="matrix(60,0,0,60,347.26929,416.0866)"><path
         d="m 0,0 c 0,0.009 -0.009,0.018 -0.017,0.026 l -0.018,0 0,0.044 0.009,0 0,0.026 0,0.018 c 0,0 0,0.008 -0.009,0.008 l 0,0.044 0.009,-0.009 c 0.009,0 0.017,-0.008 0.017,-0.017 C 0,0.131 0,0.122 0,0.114 L 0.009,0.096 0.009,0.07 -0.009,0.052 C 0,0.052 0,0.044 0.009,0.044 L 0.018,0.035 c 0,-0.009 0,-0.009 0.008,-0.017 l 0,-0.009 0,-0.018 c 0.009,-0.008 0.009,-0.026 0,-0.035 0,-0.008 0,-0.008 -0.008,-0.017 0,-0.009 -0.009,-0.009 -0.018,-0.018 -0.009,0 -0.009,-0.008 -0.017,-0.008 l -0.018,0 0,0.035 0.009,0 c 0.009,0 0.017,0 0.026,0.008 L 0,-0.017 0,0 z m -0.035,0.026 0,0 c -0.009,0 -0.017,0 -0.026,-0.008 0,-0.009 -0.009,-0.018 0,-0.027 l 0,-0.017 c 0,-0.009 0.009,-0.018 0.009,-0.026 l 0.017,0 0,-0.035 -0.009,0 c -0.008,0 -0.017,0.008 -0.017,0.008 -0.009,0.009 -0.018,0.009 -0.018,0.018 -0.008,0.009 -0.008,0.017 -0.008,0.026 l -0.009,0.018 0,0.017 0,0.009 c 0.009,0.009 0.009,0.017 0.009,0.017 0,0.009 0.008,0.009 0.008,0.018 0,0 -0.008,0.008 -0.017,0.017 0,0 -0.009,0.009 -0.009,0.018 l 0,0.017 0,0.026 c 0,0.009 0.009,0.018 0.009,0.027 0,0 0.009,0.008 0.017,0.008 0,0.009 0.009,0.009 0.018,0.009 l 0.017,0 0.009,0 0,-0.044 0,0.009 C -0.044,0.14 -0.052,0.14 -0.061,0.14 c 0,0 -0.009,-0.009 -0.009,-0.018 -0.009,0 -0.009,-0.008 -0.009,-0.017 l 0,-0.018 C -0.07,0.079 -0.07,0.07 -0.061,0.07 c 0,-0.009 0.009,-0.009 0.017,-0.009 0.009,0 0.009,0 0.009,0.009 l 0,-0.044 z"
         style="fill:#ffffff;fill-opacity:1;fill-rule:evenodd;stroke:none"
         id="path1654"
         inkscape:connector-curvature="0" /></g><g
       id="g1656"
       transform="matrix(60,0,0,60,383.47329,433.9306)"><path
         d="m 0,0 c -0.035,-0.026 -0.026,-0.07 -0.052,-0.079 -0.018,-0.008 -0.027,0.009 -0.044,0.018 -0.018,0.017 -0.053,0.026 -0.079,0.009 -0.035,-0.027 -0.044,-0.053 -0.044,-0.088 0,-0.035 0,-0.079 -0.008,-0.087 -0.009,-0.009 -0.018,0 -0.044,0.017 -0.035,0.009 -0.079,0.018 -0.131,0.018 -0.053,-0.009 -0.07,-0.009 -0.079,0.008 0,0.018 0.044,0.044 0.087,0.044 0.044,0.009 0.07,0 0.088,0.018 0.017,0.008 0.017,0.026 0.017,0.052 0.018,0.044 0.027,0.061 0.044,0.079 0.009,0.008 0.026,0.017 0.053,0.017 0.035,0 0.061,0 0.07,0.009 0.008,0.009 0.017,0.026 0.008,0.044 0,0.017 -0.008,0.035 0.009,0.043 0.018,0.018 0.035,0.009 0.053,0 0.017,0 0.026,0 0.035,0.009 C 0,0.14 0.009,0.157 0.009,0.192 0.017,0.219 0.026,0.236 0.035,0.245 0.052,0.254 0.079,0.262 0.122,0.271 0.14,0.271 0.166,0.262 0.184,0.28 0.192,0.297 0.201,0.324 0.21,0.367 0.219,0.402 0.254,0.446 0.262,0.437 0.28,0.428 0.28,0.411 0.262,0.367 0.254,0.315 0.254,0.262 0.262,0.236 0.271,0.201 0.28,0.192 0.271,0.184 0.254,0.175 0.21,0.184 0.184,0.192 0.149,0.201 0.122,0.192 0.087,0.166 0.061,0.149 0.061,0.105 0.079,0.087 0.087,0.07 0.096,0.052 0.087,0.035 0.079,0.017 0.035,0.035 0,0.009 L 0,0 z"
         style="fill:#ffffff;fill-opacity:1;fill-rule:evenodd;stroke:none"
         id="path1658"
         inkscape:connector-curvature="0" /></g><g
       id="g1660"
       transform="matrix(60,0,0,60,280.11129,433.9306)"><path
         d="m 0,0 c 0.035,-0.026 0.026,-0.07 0.052,-0.079 0.018,-0.008 0.027,0.009 0.044,0.018 0.009,0.017 0.053,0.026 0.079,0.009 0.035,-0.027 0.044,-0.053 0.044,-0.088 0,-0.035 0,-0.079 0.008,-0.087 0.009,-0.009 0.018,0 0.044,0.017 0.035,0.009 0.079,0.018 0.131,0.018 0.053,-0.009 0.07,-0.009 0.07,0.008 0.009,0.018 -0.043,0.044 -0.078,0.044 -0.044,0.009 -0.07,0 -0.088,0.018 C 0.289,-0.114 0.289,-0.096 0.28,-0.07 0.271,-0.026 0.262,-0.009 0.236,0.009 0.227,0.017 0.21,0.026 0.192,0.026 c -0.035,0 -0.061,0 -0.07,0.009 -0.017,0.009 -0.017,0.026 -0.008,0.044 0,0.017 0,0.035 -0.009,0.043 l -0.009,0 c -0.009,0.018 -0.026,0.009 -0.044,0 -0.017,0 -0.026,0 -0.043,0.009 C 0,0.14 -0.009,0.157 -0.009,0.192 c -0.008,0.027 -0.017,0.044 -0.026,0.053 -0.017,0.009 -0.044,0.017 -0.087,0.026 -0.027,0 -0.044,-0.009 -0.062,0.009 -0.017,0.017 -0.017,0.044 -0.026,0.087 -0.009,0.035 -0.044,0.079 -0.061,0.07 -0.018,-0.009 -0.018,-0.026 0,-0.07 0.017,-0.052 0.017,-0.105 0.009,-0.131 -0.009,-0.035 -0.018,-0.044 -0.009,-0.052 0.017,-0.009 0.052,0 0.087,0.008 0.035,0.009 0.062,0 0.097,-0.026 C -0.061,0.149 -0.07,0.105 -0.079,0.087 -0.087,0.07 -0.105,0.052 -0.087,0.035 -0.079,0.017 -0.035,0.035 0,0.009 L 0,0 z"
         style="fill:#ffffff;fill-opacity:1;fill-rule:evenodd;stroke:none"
         id="path1662"
         inkscape:connector-curvature="0" /></g><g
       id="g1664"
       transform="matrix(60,0,0,60,247.57929,508.4326)"><path
         d="m 0,0 0,-0.009 0,-0.043 c 0,-0.009 0,-0.009 0.009,-0.009 l 0.201,-0.018 0,-0.026 c 0,0 0,-0.009 -0.009,-0.009 L 0,-0.096 0,-0.105 -0.009,-0.149 c 0,0 0,-0.008 -0.008,-0.008 l -0.018,0.008 c 0,0 -0.009,0 0,0 l 0.009,0.14 0,0.009 L 0,0 z"
         style="fill:#ffffff;fill-opacity:1;fill-rule:evenodd;stroke:none"
         id="path1666"
         inkscape:connector-curvature="0" /></g><g
       id="g1668"
       transform="matrix(60,0,0,60,262.26729,518.4046)"><path
         d="M 0,0 0.009,-0.009 0,-0.035 l -0.009,0 -0.096,0.018 -0.009,-0.009 -0.017,-0.079 c 0,-0.009 0.009,-0.009 0.009,-0.009 l 0.096,-0.026 c 0,0 0.009,0 0.009,-0.009 l -0.009,-0.017 -0.009,0 -0.227,0.044 -0.009,0.008 0.009,0.018 c 0,0.009 0,0.009 0.008,0.009 l 0.088,-0.018 0.009,0 0.017,0.088 c 0,0.008 0,0.008 -0.009,0.008 l -0.087,0.018 0,0.008 0,0.018 c 0,0.009 0.009,0.009 0.009,0.009 L 0,0 z"
         style="fill:#ffffff;fill-opacity:1;fill-rule:evenodd;stroke:none"
         id="path1670"
         inkscape:connector-curvature="0" /></g><g
       id="g1672"
       transform="matrix(60,0,0,60,266.46729,528.3766)"><path
         d="m 0,0 0,-0.009 -0.044,-0.122 c -0.008,0 -0.008,-0.009 -0.008,-0.009 l -0.219,0.088 c -0.009,0 -0.009,0.008 -0.009,0.008 l 0.044,0.123 0.009,0 0.017,-0.009 c 0.009,0 0.009,0 0.009,-0.009 l -0.035,-0.079 0,-0.008 0.061,-0.026 c 0,0 0.009,0 0.009,0.008 l 0.026,0.07 c 0,0.009 0.009,0.009 0.009,0.009 l 0.017,-0.009 c 0,0 0.009,-0.009 0,-0.009 L -0.14,-0.061 c 0,0 0,-0.009 0.009,-0.009 l 0.061,-0.017 c 0,-0.009 0,0 0.009,0 l 0.035,0.096 0.009,0 L 0,0 z"
         style="fill:#ffffff;fill-opacity:1;fill-rule:evenodd;stroke:none"
         id="path1674"
         inkscape:connector-curvature="0" /></g><g
       id="g1676"
       transform="matrix(60,0,0,60,265.41729,548.3086)"><path
         d="m 0,0 c 0.009,-0.009 0,-0.009 0,-0.009 l -0.009,-0.026 -0.008,0 c -0.009,0 -0.009,0 -0.009,0.009 -0.009,0 -0.026,-0.009 -0.026,-0.009 -0.009,-0.009 -0.018,-0.017 -0.018,-0.017 0,-0.009 -0.009,-0.009 -0.009,-0.018 l 0,-0.009 0,-0.017 c 0.009,0 0.009,-0.009 0.018,-0.009 l 0.096,-0.07 c 0.009,0 0.017,-0.009 0.017,-0.009 0.009,0 0.009,0.009 0.018,0.009 0,0 0.009,0 0.009,0.009 0.008,0 0.008,0.009 0.008,0.009 0.009,0.008 0.018,0.026 0,0.043 -0.008,0.009 -0.008,0.009 -0.017,0.009 l 0,0.009 0.017,0.017 c 0,0 0,0.009 0.009,0.009 L 0.114,-0.087 C 0.131,-0.105 0.14,-0.122 0.131,-0.149 0.131,-0.157 0.122,-0.166 0.114,-0.175 0.105,-0.184 0.105,-0.192 0.096,-0.201 0.087,-0.201 0.079,-0.21 0.079,-0.21 0.07,-0.219 0.061,-0.219 0.052,-0.219 c -0.008,0 -0.017,0.009 -0.026,0.009 l -0.113,0.079 c -0.009,0 -0.009,0.009 -0.018,0.017 0,0.009 -0.009,0.018 -0.009,0.027 l 0,0.026 c 0.009,0.009 0.009,0.017 0.018,0.026 0.009,0.009 0.017,0.018 0.026,0.026 C -0.061,0 -0.044,0.009 -0.035,0.009 -0.017,0.009 -0.009,0 0,0"
         style="fill:#ffffff;fill-opacity:1;fill-rule:evenodd;stroke:none"
         id="path1678"
         inkscape:connector-curvature="0" /></g><g
       id="g1680"
       transform="matrix(60,0,0,60,281.16129,549.3646)"><path
         d="m 0,0 0,-0.009 -0.087,-0.096 c -0.009,-0.009 -0.009,-0.009 -0.009,0 l -0.175,0.149 -0.009,0.008 0.088,0.097 c 0,0.008 0.008,0.008 0.008,0 l 0.018,-0.009 0,-0.009 -0.061,-0.07 0,-0.009 0.043,-0.043 0.009,0 0.053,0.061 c 0,0.009 0.008,0.009 0.008,0 l 0.018,-0.009 0,-0.009 -0.053,-0.061 c -0.008,0 -0.008,-0.009 0,-0.009 l 0.044,-0.043 0.018,0 0.061,0.078 0.008,0 L 0,0 z"
         style="fill:#ffffff;fill-opacity:1;fill-rule:evenodd;stroke:none"
         id="path1682"
         inkscape:connector-curvature="0" /></g><g
       id="g1684"
       transform="matrix(60,0,0,60,287.98329,555.6586)"><path
         d="m 0,0 0,-0.009 -0.087,-0.078 c -0.009,-0.009 -0.009,-0.009 -0.009,0 l -0.158,0.174 0,0.009 0.018,0.018 0.009,0 0.131,-0.158 0.009,0 0.07,0.061 c 0,0 0.008,0 0.008,-0.008 L 0,0 z"
         style="fill:#ffffff;fill-opacity:1;fill-rule:evenodd;stroke:none"
         id="path1686"
         inkscape:connector-curvature="0" /></g><g
       id="g1688"
       transform="matrix(60,0,0,60,287.45529,570.8746)"><path
         d="m 0,0 0,-0.009 -0.035,-0.026 c -0.009,0 -0.009,-0.009 0,-0.009 L 0.079,-0.21 c 0,-0.009 0,-0.009 -0.009,-0.009 l -0.018,-0.017 -0.008,0.009 -0.114,0.166 -0.009,0 -0.035,-0.026 -0.008,0 -0.009,0.017 c -0.009,0 0,0.009 0,0.009 l 0.114,0.078 0.008,0 L 0,0 z"
         style="fill:#ffffff;fill-opacity:1;fill-rule:evenodd;stroke:none"
         id="path1690"
         inkscape:connector-curvature="0" /></g><g
       id="g1692"
       transform="matrix(60,0,0,60,296.89929,560.9026)"><path
         d="m 0,0 c 0,-0.009 -0.009,0 -0.009,0 l -0.113,0.201 0,0.009 0.017,0.009 c 0.009,0.008 0.009,0.008 0.009,0 L 0.017,0.017 c 0.009,-0.008 0,-0.008 0,-0.008 L 0,0 z"
         style="fill:#ffffff;fill-opacity:1;fill-rule:evenodd;stroke:none"
         id="path1694"
         inkscape:connector-curvature="0" /></g><g
       id="g1696"
       transform="matrix(60,0,0,60,321.55929,582.4186)"><path
         d="m 0,0 c 0,0 0,-0.009 -0.009,-0.009 l -0.087,-0.008 -0.009,-0.009 0.009,-0.061 c 0.009,0 0.009,-0.009 0.009,-0.009 l 0.078,0.017 C 0,-0.079 0,-0.079 0,-0.087 l 0.009,-0.018 -0.009,0 -0.079,-0.017 -0.008,-0.009 0.017,-0.096 0,-0.009 -0.026,0 -0.009,0 L -0.14,0 l 0,0.009 0.131,0.017 c 0,0 0.009,0 0.009,-0.008 L 0,0 z"
         style="fill:#ffffff;fill-opacity:1;fill-rule:evenodd;stroke:none"
         id="path1698"
         inkscape:connector-curvature="0" /></g><g
       id="g1700"
       transform="matrix(60,0,0,60,331.53129,580.8466)"><path
         d="m 0,0 c 0,0.009 0,0.009 -0.009,0.017 0,0 0,0.009 -0.008,0.009 l -0.009,0.009 -0.018,0 0,0.026 0.027,0 C -0.009,0.061 0,0.052 0.009,0.052 0.017,0.044 0.017,0.044 0.026,0.035 0.035,0.026 0.035,0.017 0.035,0.009 l 0,-0.131 0,-0.027 C 0.026,-0.157 0.026,-0.166 0.017,-0.175 0.009,-0.175 0,-0.184 -0.009,-0.184 c -0.008,0 -0.017,-0.008 -0.026,-0.008 l -0.009,0 0,0.035 0.009,0 0.009,0 c 0.009,0 0.009,0.008 0.017,0.008 L 0,-0.14 0,-0.122 0,0 z m -0.044,0.035 0,0 -0.017,0 C -0.07,0.026 -0.07,0.026 -0.079,0.026 c 0,-0.009 0,-0.009 -0.008,-0.009 l 0,-0.017 0.008,-0.131 0,-0.009 c 0,-0.009 0.009,-0.009 0.009,-0.009 0.009,-0.008 0.009,-0.008 0.018,-0.008 l 0.008,0 0,-0.035 c -0.008,0 -0.017,0 -0.017,0.008 -0.018,0 -0.026,0 -0.026,0.009 -0.009,0 -0.018,0.009 -0.027,0.018 l 0,0.026 L -0.122,0 c 0,0.009 0,0.017 0.008,0.026 0,0.009 0.009,0.018 0.018,0.018 0.009,0.008 0.017,0.017 0.026,0.017 l 0.026,0 0,-0.026 z"
         style="fill:#ffffff;fill-opacity:1;fill-rule:evenodd;stroke:none"
         id="path1702"
         inkscape:connector-curvature="0" /></g><g
       id="g1704"
       transform="matrix(60,0,0,60,344.64729,579.7966)"><path
         d="m 0,0 c 0.009,0.009 0,0.009 0,0.017 0,0 0,0.009 -0.009,0.009 0,0.009 0,0.009 -0.009,0.009 -0.008,0 -0.008,0.009 -0.017,0.009 l -0.009,0 0,0.026 0.018,0 c 0.008,0 0.017,0 0.026,-0.009 0.009,0 0.017,-0.009 0.017,-0.009 C 0.026,0.044 0.035,0.035 0.035,0.026 0.044,0.017 0.044,0.009 0.044,0 L 0.026,-0.131 C 0.017,-0.14 0.017,-0.149 0.009,-0.157 0.009,-0.166 0,-0.166 -0.009,-0.175 c -0.009,0 -0.017,0 -0.026,-0.009 l -0.009,0 0,0.035 0.018,0 c 0,0.009 0.008,0.009 0.008,0.009 0,0.009 0.009,0.009 0.009,0.018 L 0,0 z m -0.044,0.044 -0.008,0 -0.009,-0.009 c -0.009,0 -0.009,-0.009 -0.018,-0.009 l 0,-0.009 -0.017,-0.131 0,-0.017 c 0,0 0.009,0 0.009,-0.009 0.008,0 0.008,-0.009 0.017,-0.009 l 0.009,0 0.017,0 0,-0.035 -0.017,0 c -0.009,0 -0.018,0.009 -0.026,0.009 -0.009,0.009 -0.018,0.009 -0.027,0.018 -0.008,0 -0.008,0.008 -0.017,0.017 l 0,0.026 0.017,0.131 c 0,0.018 0,0.027 0.009,0.027 0.009,0.008 0.009,0.017 0.018,0.017 0.008,0.009 0.017,0.009 0.026,0.009 l 0.017,0 0,-0.026 z"
         style="fill:#ffffff;fill-opacity:1;fill-rule:evenodd;stroke:none"
         id="path1706"
         inkscape:connector-curvature="0" /></g><g
       id="g1708"
       transform="matrix(60,0,0,60,359.34129,578.7406)"><path
         d="M 0,0 C 0,-0.009 0,-0.009 -0.009,-0.009 L -0.052,0.009 -0.061,0 -0.114,-0.192 c 0,-0.009 -0.008,-0.009 -0.008,-0.009 l -0.027,0.009 0,0.008 0.053,0.193 0,0.009 -0.044,0.017 c -0.009,0 -0.009,0 -0.009,0.009 l 0.009,0.008 c 0,0.009 0,0.009 0.009,0.009 L 0,0.026 0.009,0.018 0,0 z"
         style="fill:#ffffff;fill-opacity:1;fill-rule:evenodd;stroke:none"
         id="path1710"
         inkscape:connector-curvature="0" /></g><g
       id="g1712"
       transform="matrix(60,0,0,60,365.63529,571.3966)"><path
         d="m 0,0 0.009,0 0.008,0 c 0.009,0.009 0.009,0.009 0.009,0.017 l 0.009,0.009 0,0.018 c 0,0.008 -0.009,0.017 -0.026,0.017 L 0,0.07 0,0.105 0.035,0.087 c 0,0 0.009,-0.008 0.017,-0.008 C 0.061,0.07 0.061,0.061 0.07,0.052 l 0,-0.017 0,-0.026 L 0.061,0 c 0,-0.009 -0.009,-0.017 -0.017,-0.017 0,-0.009 -0.009,-0.009 -0.018,-0.018 l 0.009,-0.009 0,-0.017 0,-0.009 0,-0.017 -0.009,-0.018 C 0.017,-0.122 0.009,-0.122 0.009,-0.131 0,-0.131 0,-0.14 0,-0.14 l 0,0.061 0,0.009 0,0.009 0,0.009 L 0,0 z M -0.035,0.009 -0.017,0 0,0 0,-0.052 -0.009,-0.044 c 0,0.009 -0.008,0.009 -0.008,0.009 l -0.035,0.018 -0.009,0 -0.026,-0.062 c -0.009,-0.008 0,-0.008 0,-0.017 l 0.017,-0.009 0.018,0 c 0.008,0 0.008,-0.009 0.017,0 l 0.018,0 c 0,0 0,0.009 0.008,0.009 L 0,-0.079 0,-0.14 l -0.017,0 c -0.009,-0.009 -0.018,-0.009 -0.027,0 l -0.026,0 -0.061,0.035 c 0,0 -0.009,0 0,0.009 l 0.087,0.21 c 0.009,0 0.009,0.008 0.018,0 L 0,0.105 0,0.07 l -0.009,0 c -0.008,0.009 -0.008,0.009 -0.008,0 L -0.044,0.026 c 0,-0.009 0,-0.009 0.009,-0.017"
         style="fill:#ffffff;fill-opacity:1;fill-rule:evenodd;stroke:none"
         id="path1714"
         inkscape:connector-curvature="0" /></g><g
       id="g1716"
       transform="matrix(60,0,0,60,378.22929,566.6746)"><path
         d="m 0,0 0.009,0.009 0,0.008 0,0.009 0,-0.009 -0.009,0 0,-0.008 -0.026,-0.018 0,0.035 0.035,0.035 0.008,0 0.027,-0.017 c 0,0 0.008,-0.009 0,-0.009 l -0.07,-0.236 0,0.122 L 0,0 z m -0.026,-0.009 -0.044,-0.035 0,-0.008 0.035,-0.027 0.009,0 0,-0.122 -0.009,0 -0.017,0.009 c -0.009,0.008 -0.009,0.008 -0.009,0.017 l 0.026,0.053 c 0,0.008 0,0.008 -0.009,0.008 l -0.043,0.035 c -0.009,0.009 -0.009,0.009 -0.018,0 l -0.044,-0.035 c 0,-0.008 -0.008,-0.008 -0.008,0 l -0.018,0.009 c -0.009,0 -0.009,0.009 0,0.009 l 0.149,0.122 0,-0.035 z"
         style="fill:#ffffff;fill-opacity:1;fill-rule:evenodd;stroke:none"
         id="path1718"
         inkscape:connector-curvature="0" /></g><g
       id="g1720"
       transform="matrix(60,0,0,60,383.47329,548.3086)"><path
         d="m 0,0 -0.009,0 -0.087,0.079 0,0.017 0.157,0.166 0.009,0 0.017,-0.008 0,-0.018 -0.139,-0.14 0,-0.017 0.069,-0.053 0,-0.008 L 0,0 z"
         style="fill:#ffffff;fill-opacity:1;fill-rule:evenodd;stroke:none"
         id="path1722"
         inkscape:connector-curvature="0" /></g><g
       id="g1724"
       transform="matrix(60,0,0,60,389.77329,540.9646)"><path
         d="m 0,0 -0.009,0 -0.078,0.096 c -0.009,0 -0.009,0.009 0,0.009 l 0.174,0.149 c 0,0.008 0.009,0.008 0.009,0 l 0.018,-0.018 0,-0.009 -0.158,-0.131 0,-0.009 0.053,-0.061 c 0.008,-0.009 0.008,-0.009 0,-0.009 L 0,0 z"
         style="fill:#ffffff;fill-opacity:1;fill-rule:evenodd;stroke:none"
         id="path1726"
         inkscape:connector-curvature="0" /></g><g
       id="g1728"
       transform="matrix(60,0,0,60,400.78929,519.9766)"><path
         d="m 0,0 c -0.009,-0.009 -0.009,0 -0.009,0 l -0.043,0.114 c -0.009,0 0,0.008 0,0.008 L 0.166,0.21 c 0,0 0.009,0 0.009,-0.009 L 0.184,0.184 c 0,0 0,-0.009 -0.009,-0.009 l -0.184,-0.07 c -0.008,0 -0.008,-0.009 -0.008,-0.009 L 0.017,0.009 0.017,0 0,0 z"
         style="fill:#ffffff;fill-opacity:1;fill-rule:evenodd;stroke:none"
         id="path1730"
         inkscape:connector-curvature="0" /></g><g
       id="g1732"
       transform="matrix(60,0,0,60,416.53329,513.1546)"><path
         d="m 0,0 -0.175,-0.044 -0.035,0 c -0.009,0.009 -0.009,0.009 -0.017,0.018 -0.009,0 -0.009,0.009 -0.018,0.017 0,0.009 -0.009,0.018 -0.009,0.026 l 0,0.027 0,0.026 c 0.009,0.009 0.009,0.017 0.018,0.026 0.009,0.009 0.009,0.009 0.026,0.009 l 0.166,0.044 c 0.009,0 0.018,0 0.018,-0.009 l 0,-0.009 c 0.008,-0.009 0.008,-0.017 0,-0.017 l -0.175,-0.044 -0.018,0 c 0,-0.009 0,-0.009 -0.008,-0.018 l 0,-0.017 0,-0.009 c 0,-0.009 0.008,-0.009 0.008,-0.017 0,0 0,-0.009 0.009,-0.009 l 0.009,-0.009 0.017,0 0.175,0.044 c 0,0 0.009,0 0.009,-0.009 L 0.009,0.009 C 0.009,0 0,0 0,0"
         style="fill:#ffffff;fill-opacity:1;fill-rule:evenodd;stroke:none"
         id="path1734"
         inkscape:connector-curvature="0" /></g><g
       id="g1736"
       transform="matrix(60,0,0,60,304.77129,576.6466)"><path
         d="m 0,0 c 0.009,-0.009 0,-0.009 0,-0.009 l -0.026,-0.008 -0.009,0.008 C -0.035,0 -0.052,0.009 -0.061,0.009 -0.07,0 -0.079,0 -0.087,0 l -0.009,-0.009 c -0.009,0 -0.009,-0.008 -0.009,-0.008 -0.009,-0.009 -0.009,-0.009 -0.009,-0.018 l 0,-0.009 0.053,-0.122 0.009,-0.009 c 0.008,0 0.008,-0.009 0.017,-0.009 l 0.009,0 c 0.008,0.009 0.008,0.009 0.017,0.009 0.009,0 0.026,0.009 0.018,0.044 l 0,0.009 c -0.009,0.008 0,0.008 0,0.008 l 0.026,0.009 c 0,0 0.009,0 0.009,-0.009 0,-0.008 0.008,-0.017 0.008,-0.026 0,-0.017 0,-0.035 -0.017,-0.052 C 0.026,-0.192 0.009,-0.201 0,-0.21 l -0.026,0 c -0.009,-0.009 -0.018,-0.009 -0.026,0 -0.009,0 -0.018,0 -0.027,0.009 0,0 -0.008,0.009 -0.008,0.017 l -0.053,0.123 c -0.009,0.009 -0.009,0.017 -0.009,0.026 0,0.009 0.009,0.018 0.009,0.026 0,0.009 0.009,0.018 0.018,0.026 0.008,0 0.017,0.009 0.026,0.009 0.009,0.009 0.026,0.009 0.035,0.009 l 0.035,0 C -0.009,0.017 0,0.009 0,0"
         style="fill:#ffffff;fill-opacity:1;fill-rule:evenodd;stroke:none"
         id="path1738"
         inkscape:connector-curvature="0" /></g><g
       id="g1740"
       transform="matrix(60,0,0,60,413.90529,501.6166)"><path
         d="m 0,0 0,0 0.009,0 c 0.008,0.009 0.017,0.009 0.017,0.017 0.009,0 0.009,0.009 0.009,0.027 l 0,0.017 C 0.035,0.07 0.026,0.07 0.026,0.07 l -0.026,0 0,0.035 0.052,0 c 0.009,0.009 0.009,0 0.009,-0.009 L 0.07,0.035 c 0,-0.009 0,-0.018 -0.009,-0.026 0,-0.009 0,-0.009 -0.009,-0.018 0,-0.008 -0.008,-0.017 -0.017,-0.017 -0.009,0 -0.018,-0.009 -0.026,-0.009 L 0,-0.035 0,0 z m -0.035,0.061 0,-0.026 0,-0.009 c 0.009,-0.009 0.009,-0.009 0.009,-0.017 l 0.009,0 C -0.009,0 -0.009,0 0,0 l 0,-0.035 c -0.009,0 -0.017,0 -0.026,0.009 -0.009,0 -0.009,0.009 -0.018,0.009 l -0.008,-0.009 c 0,-0.009 -0.009,-0.009 -0.009,-0.009 -0.009,-0.009 -0.009,-0.009 -0.018,-0.009 l -0.008,0 -0.018,-0.008 0,0.043 0.009,0 0.017,0 c 0,0 0,0.009 0.009,0.009 l 0,0.009 c 0.009,0.008 0.009,0.008 0.009,0.017 L -0.07,0.061 c 0,0.009 0,0.009 -0.009,0.009 l -0.026,-0.009 0,0.035 L 0,0.105 0,0.07 l -0.026,0 c -0.009,0 -0.009,0 -0.009,-0.009 m -0.07,0.035 0,-0.035 -0.035,0 c -0.009,0 -0.009,0 -0.009,-0.009 l 0,-0.017 0,-0.018 C -0.149,0.009 -0.14,0.009 -0.14,0 l 0.009,-0.009 0.017,0 0.009,0 0,-0.043 -0.009,0 c -0.008,0 -0.017,0 -0.026,0.008 -0.009,0 -0.017,0.009 -0.017,0.018 -0.009,0 -0.018,0.009 -0.018,0.017 0,0.009 -0.009,0.018 -0.009,0.026 l 0,0.07 c 0,0.009 0,0.009 0.009,0.009 l 0.07,0 z"
         style="fill:#ffffff;fill-opacity:1;fill-rule:evenodd;stroke:none"
         id="path1742"
         inkscape:connector-curvature="0" /></g><g
       id="g1744"
       transform="matrix(60,0,0,60,407.08929,533.0926)"><path
         d="m 0,0 c -0.009,-0.009 -0.009,0 -0.009,0 l -0.009,0.017 c 0,0 -0.008,0.009 0,0.009 0,0.009 0,0.009 0.009,0.009 0,0 0.009,0.017 0,0.026 l 0,0.026 c -0.009,0 -0.009,0.009 -0.009,0.009 -0.008,0 -0.008,0.009 -0.017,0.009 l -0.009,0 -0.017,0 -0.114,-0.061 -0.009,-0.009 0,-0.018 0,-0.008 0,-0.018 c 0.009,-0.008 0.018,-0.026 0.044,-0.017 0.009,0.009 0.009,0.009 0.018,0.009 0.008,0 0.008,-0.009 0.008,-0.009 l 0.009,-0.018 c 0,0 0,-0.008 -0.009,-0.008 0,-0.009 -0.008,-0.009 -0.017,-0.009 -0.018,-0.009 -0.044,-0.009 -0.053,0.009 -0.008,0.008 -0.017,0.017 -0.026,0.035 0,0.008 -0.009,0.017 -0.009,0.026 l 0,0.026 c 0,0.009 0,0.009 0.009,0.017 0,0.009 0.009,0.018 0.018,0.018 l 0.113,0.07 0.027,0 0.026,0 C -0.018,0.131 -0.009,0.131 0,0.122 0.009,0.114 0.009,0.105 0.017,0.096 0.026,0.087 0.026,0.079 0.026,0.061 l 0,-0.035 C 0.017,0.009 0.009,0 0,0"
         style="fill:#ffffff;fill-opacity:1;fill-rule:evenodd;stroke:none"
         id="path1746"
         inkscape:connector-curvature="0" /></g><g
       id="g1748"
       transform="matrix(60,0,0,60,331.53129,708.8686)"><path
         d="m 0,0 0.122,-0.376 0.403,0 L 0.201,-0.612 0.324,-0.988 0,-0.752 l -0.315,-0.236 0.123,0.376 -0.324,0.236 0.402,0 L 0,0 z"
         style="fill:#46464a;fill-opacity:1;fill-rule:evenodd;stroke:none"
         id="path1750"
         inkscape:connector-curvature="0" /></g><g
       id="g1752"
       transform="matrix(60,0,0,60,415.48329,411.8926)"><path
         d="M 0,0 0.315,-0.315 0.271,-0.341 C 0.192,-0.402 0.096,-0.437 0,-0.463 l 0,0.087 c 0.061,0.017 0.131,0.044 0.184,0.07 L 0,-0.114 0,0 z m -0.157,0.018 c 0.017,0.034 0.035,0.061 0.052,0.096 L 0,0 0,-0.114 -0.087,-0.026 c -0.018,-0.035 -0.044,-0.079 -0.07,-0.123 l 0,0.167 z M 0,-0.463 c -0.026,-0.009 -0.044,-0.009 -0.07,-0.018 -0.017,-0.052 -0.052,-0.096 -0.087,-0.14 l 0,0.21 0.017,0 c 0.009,0.035 0,0.07 -0.017,0.096 l 0,0.114 c 0.061,-0.044 0.105,-0.114 0.105,-0.193 0.017,0.009 0.035,0.009 0.052,0.018 l 0,-0.087 z m -0.245,0.332 c 0.026,0.052 0.061,0.096 0.088,0.149 l 0,-0.167 c -0.009,-0.008 -0.018,-0.026 -0.027,-0.035 0.009,0 0.018,-0.008 0.027,-0.017 l 0,-0.114 c -0.018,0.026 -0.035,0.044 -0.07,0.061 l -0.018,-0.026 0,0.149 z m 0.088,-0.49 C -0.175,-0.647 -0.201,-0.665 -0.219,-0.682 -0.227,-0.691 -0.236,-0.691 -0.245,-0.7 l 0,0.105 c 0.026,0.027 0.053,0.062 0.07,0.097 -0.017,-0.009 -0.044,-0.009 -0.07,-0.009 l 0,0.079 c 0.026,0.008 0.061,0.008 0.088,0.017 l 0,-0.21 z m -0.167,0.49 c 0.027,0 0.044,-0.009 0.07,-0.018 l 0.009,0.018 0,-0.149 c -0.026,-0.044 -0.052,-0.087 -0.079,-0.122 l 0,0.148 c 0.009,0.009 0.018,0.027 0.027,0.035 -0.009,0 -0.018,0.009 -0.027,0.009 l 0,0.079 z M -0.245,-0.7 c -0.026,-0.017 -0.052,-0.035 -0.079,-0.052 l 0,0.096 c 0.018,0.009 0.035,0.026 0.053,0.035 l 0.026,0.026 0,-0.105 z m 0,0.272 0,-0.079 c -0.026,-0.009 -0.052,-0.009 -0.079,-0.009 l 0,0.079 c 0.027,0.009 0.053,0.009 0.079,0.009 m -0.323,0.244 c 0.078,0.044 0.157,0.07 0.244,0.053 l 0,-0.079 c -0.087,0.018 -0.174,-0.017 -0.244,-0.07 l 0,0.096 z m 0.244,-0.568 c -0.078,-0.035 -0.157,-0.061 -0.244,-0.061 l 0,0.078 c 0.087,0.009 0.174,0.035 0.244,0.079 l 0,-0.096 z m 0,0.498 c -0.043,-0.07 -0.087,-0.131 -0.131,-0.192 l -0.113,0 0,-0.079 0.043,0 C -0.542,-0.542 -0.551,-0.56 -0.568,-0.568 l 0,-0.123 c 0.035,0.035 0.07,0.07 0.105,0.114 0.017,0.017 0.035,0.035 0.043,0.052 0.035,0 0.061,0.009 0.096,0.009 l 0,0.079 -0.026,0 c 0.009,0.009 0.018,0.026 0.026,0.035 l 0,0.148 z m -0.411,-0.07 c 0.027,0.027 0.053,0.053 0.079,0.07 0.026,0.035 0.061,0.053 0.088,0.07 l 0,-0.096 C -0.577,-0.289 -0.595,-0.297 -0.603,-0.306 -0.647,-0.35 -0.691,-0.394 -0.735,-0.437 l 0,0.113 z m 0.167,-0.489 -0.088,0 c -0.009,0 -0.017,0 -0.035,0.008 -0.009,-0.017 -0.026,-0.026 -0.044,-0.043 l 0,0.131 0.027,0 c 0.052,0.044 0.096,0.096 0.14,0.149 l 0,-0.123 c -0.009,-0.017 -0.027,-0.026 -0.035,-0.044 l 0.035,0 0,-0.078 z m 0,0.367 0,-0.079 c -0.053,-0.008 -0.114,0 -0.167,0 l 0,0.079 0.167,0 z m -0.298,0.009 0,0 c 0.044,0.035 0.088,0.078 0.131,0.113 l 0,-0.113 -0.008,-0.009 0.008,0 0,-0.079 -0.096,0 C -0.848,-0.533 -0.857,-0.542 -0.866,-0.56 l 0,0.123 z m 0.131,-0.411 C -0.77,-0.866 -0.813,-0.892 -0.857,-0.909 l -0.009,0 0,0.087 c 0.026,0.009 0.053,0.026 0.07,0.035 -0.026,0.009 -0.052,0.026 -0.07,0.035 l 0,0.087 c 0.035,-0.017 0.088,-0.035 0.131,-0.052 l 0,-0.131 z m -0.297,0.42 c 0.053,0 0.114,-0.009 0.166,-0.009 l 0,-0.123 c -0.026,-0.017 -0.052,-0.043 -0.078,-0.061 0.026,-0.017 0.052,-0.026 0.078,-0.044 l 0,-0.087 c -0.052,0.017 -0.105,0.044 -0.148,0.079 l -0.018,-0.009 0,0.114 0.018,-0.009 c 0.017,0.026 0.043,0.044 0.07,0.061 -0.035,0 -0.062,0 -0.088,0.009 l 0,0.079 z m 0.166,-0.481 c -0.052,-0.027 -0.113,-0.035 -0.166,-0.035 l 0,0.087 c 0.053,0 0.096,0.009 0.149,0.026 l 0.017,0.009 0,-0.087 z m -0.542,0.131 c 0.114,0.043 0.219,0.087 0.315,0.157 -0.053,0.044 -0.114,0.088 -0.166,0.14 l -0.088,0.087 0.123,-0.017 c 0.061,-0.009 0.131,-0.009 0.192,-0.017 l 0,-0.079 -0.079,0 c 0.027,-0.018 0.053,-0.035 0.079,-0.061 l 0,-0.114 c -0.079,-0.053 -0.157,-0.096 -0.245,-0.131 0.079,-0.035 0.166,-0.053 0.245,-0.044 l 0,-0.087 c -0.122,0 -0.245,0.035 -0.358,0.078 -0.123,-0.052 -0.245,-0.087 -0.376,-0.078 l 0,0.078 c 0.087,0 0.174,0.018 0.253,0.044 -0.087,0.035 -0.175,0.079 -0.253,0.131 l 0,0.123 c 0.026,0.017 0.061,0.035 0.078,0.061 -0.026,0 -0.052,-0.009 -0.078,-0.009 l 0,0.079 c 0.069,0.009 0.131,0.017 0.201,0.026 l 0.113,0.009 -0.078,-0.079 c -0.053,-0.052 -0.114,-0.105 -0.175,-0.149 0.096,-0.061 0.192,-0.105 0.297,-0.148 m -0.358,-0.166 c -0.053,0 -0.105,0.008 -0.158,0.026 l 0,0.087 c 0.009,0 0.009,0 0.018,-0.009 0.043,-0.017 0.096,-0.026 0.14,-0.026 l 0,-0.078 z m -0.158,0.498 c 0.053,0.009 0.105,0.009 0.158,0.009 l 0,-0.079 c -0.027,0 -0.053,0 -0.079,-0.009 0.026,-0.017 0.044,-0.035 0.07,-0.052 l 0.009,0.009 0,-0.123 -0.009,0.009 c -0.044,-0.026 -0.096,-0.053 -0.149,-0.079 l 0,0.096 c 0.026,0.009 0.053,0.027 0.079,0.035 -0.026,0.027 -0.053,0.044 -0.079,0.07 l 0,0.114 z m 0,-0.472 -0.017,0.009 c -0.035,0.017 -0.079,0.035 -0.114,0.061 l 0,0.131 c 0.044,0.009 0.087,0.026 0.131,0.052 l 0,-0.096 c -0.026,-0.009 -0.052,-0.017 -0.079,-0.026 0.027,-0.018 0.053,-0.035 0.079,-0.044 l 0,-0.087 z m -0.131,0.594 c 0.044,-0.043 0.079,-0.078 0.122,-0.122 l 0.009,0 0,-0.114 c -0.009,0.009 -0.026,0.018 -0.035,0.035 -0.035,-0.008 -0.061,-0.008 -0.096,-0.008 l 0,0.087 0.009,0 -0.009,0.009 0,0.113 z m 0,-0.524 c -0.018,0.008 -0.035,0.017 -0.053,0.035 -0.008,0 -0.017,0 -0.026,-0.009 l -0.096,0 0,0.087 c 0.018,-0.008 0.026,-0.008 0.044,-0.008 l -0.044,0.043 0,0.123 c 0.053,-0.053 0.096,-0.105 0.149,-0.149 0.008,0 0.017,0.009 0.026,0.009 l 0,-0.131 z m -0.175,0.664 c 0.035,-0.017 0.07,-0.043 0.096,-0.07 0.026,-0.026 0.053,-0.052 0.079,-0.07 l 0,-0.113 c -0.044,0.035 -0.087,0.078 -0.131,0.122 -0.018,0.009 -0.026,0.018 -0.044,0.026 l 0,0.105 z m 0.175,-0.262 0,-0.087 -0.175,0 0,0.078 c 0.061,0 0.114,0 0.175,0.009 M -2.23,-0.822 c -0.079,0.009 -0.166,0.026 -0.236,0.061 l 0,0.096 c 0.07,-0.043 0.157,-0.07 0.236,-0.07 l 0,-0.087 z m -0.236,0.691 c 0.087,0.009 0.166,-0.009 0.236,-0.053 l 0,-0.105 c -0.07,0.062 -0.149,0.088 -0.236,0.07 l 0,0.088 z m 0.236,-0.324 c -0.035,0 -0.07,0.009 -0.105,0.009 l -0.131,0.184 0,-0.149 c 0.009,-0.009 0.017,-0.017 0.026,-0.035 l -0.026,0.009 0,-0.088 0.087,0 c 0.018,-0.026 0.035,-0.043 0.053,-0.061 0.026,-0.035 0.061,-0.079 0.096,-0.114 l 0,0.123 c -0.009,0.017 -0.026,0.026 -0.035,0.044 l 0.035,0 0,0.078 z m -0.236,-0.306 c -0.026,0.018 -0.053,0.035 -0.079,0.053 l 0,0.113 0.026,-0.026 c 0.018,-0.017 0.035,-0.026 0.053,-0.044 l 0,-0.096 z m -0.079,0.63 0.009,-0.018 c 0.017,0.009 0.044,0.009 0.07,0.018 l 0,-0.088 -0.026,0 c 0.008,-0.017 0.017,-0.026 0.026,-0.043 l 0,-0.149 c -0.026,0.044 -0.053,0.079 -0.079,0.122 l 0,0.158 z m 0.079,-0.306 0,-0.088 c -0.026,0 -0.053,0.009 -0.079,0.009 l 0,0.088 c 0.026,-0.009 0.053,-0.009 0.079,-0.009 m -0.079,-0.271 c -0.009,0.008 -0.017,0.017 -0.026,0.017 -0.026,0.026 -0.044,0.044 -0.061,0.061 l 0,0.21 c 0.026,0 0.052,-0.008 0.087,-0.008 l 0,-0.088 c -0.026,0 -0.052,0.009 -0.078,0.009 0.017,-0.035 0.043,-0.061 0.078,-0.088 l 0,-0.113 z m -0.087,0.726 c 0.026,-0.053 0.052,-0.105 0.087,-0.149 l 0,-0.158 -0.026,0.027 C -2.597,-0.28 -2.615,-0.297 -2.632,-0.324 l 0,0.123 c 0.009,0 0.009,0.009 0.017,0.009 0,0.017 -0.008,0.026 -0.017,0.035 l 0,0.175 z m 0,-0.648 c -0.035,0.044 -0.07,0.097 -0.088,0.14 -0.026,0.009 -0.052,0.018 -0.07,0.018 l 0,0.087 c 0.018,0 0.035,-0.009 0.053,-0.017 0,0.087 0.044,0.148 0.105,0.201 l 0,-0.123 C -2.65,-0.35 -2.658,-0.376 -2.65,-0.42 l 0.018,0 0,-0.21 z m -0.158,0.621 0.105,0.114 C -2.667,0.079 -2.65,0.044 -2.632,0.018 l 0,-0.175 c -0.026,0.043 -0.044,0.078 -0.07,0.122 l -0.088,-0.096 0,0.122 z m 0,-0.463 c -0.105,0.026 -0.201,0.07 -0.279,0.122 l -0.035,0.035 0.314,0.306 0,-0.122 -0.183,-0.175 c 0.052,-0.035 0.113,-0.061 0.183,-0.079 l 0,-0.087 z"
         style="fill:#46464a;fill-opacity:1;fill-rule:evenodd;stroke:none"
         id="path1754"
         inkscape:connector-curvature="0" /></g><g
       id="g1756"
       transform="matrix(60,0,0,60,415.48329,581.8906)"><path
         d="M 0,0 0.315,0.315 0.271,0.341 C 0.192,0.402 0.096,0.437 0,0.463 L 0,0.376 C 0.061,0.359 0.131,0.341 0.184,0.306 L 0,0.114 0,0 z m -0.157,-0.017 c 0.017,-0.035 0.035,-0.062 0.052,-0.097 L 0,0 0,0.114 -0.087,0.026 c -0.018,0.035 -0.044,0.079 -0.07,0.123 l 0,-0.166 z M 0,0.463 c -0.026,0.009 -0.044,0.018 -0.07,0.018 -0.017,0.052 -0.052,0.105 -0.087,0.14 l 0,-0.201 0.017,-0.009 c 0.009,-0.035 0,-0.07 -0.017,-0.096 l 0,-0.114 c 0.061,0.044 0.105,0.114 0.105,0.192 0.017,0 0.035,-0.008 0.052,-0.017 L 0,0.463 z M -0.245,0.131 c 0.026,-0.052 0.061,-0.096 0.088,-0.148 l 0,0.166 c -0.009,0.008 -0.018,0.026 -0.027,0.035 0.009,0.008 0.018,0.008 0.027,0.017 l 0,0.114 c -0.018,-0.026 -0.035,-0.044 -0.07,-0.061 0,0.008 -0.009,0.017 -0.018,0.035 l 0,-0.158 z m 0.088,0.49 C -0.175,0.647 -0.201,0.665 -0.219,0.682 -0.227,0.691 -0.236,0.7 -0.245,0.7 l 0,-0.105 c 0.026,-0.027 0.053,-0.062 0.07,-0.097 -0.017,0.009 -0.044,0.009 -0.07,0.009 l 0,-0.079 c 0.026,0 0.061,-0.008 0.088,-0.008 l 0,0.201 z m -0.167,-0.49 c 0.027,0 0.044,0.009 0.07,0.018 l 0.009,-0.018 0,0.158 c -0.026,0.035 -0.052,0.078 -0.079,0.113 l 0,-0.14 c 0.009,-0.017 0.018,-0.026 0.027,-0.043 -0.009,0 -0.018,0 -0.027,-0.009 l 0,-0.079 z M -0.245,0.7 c -0.026,0.026 -0.052,0.043 -0.079,0.052 l 0,-0.096 c 0.018,-0.009 0.035,-0.018 0.053,-0.035 0.009,-0.009 0.017,-0.018 0.026,-0.026 l 0,0.105 z m 0,-0.193 0,-0.079 c -0.026,0 -0.052,0.009 -0.079,0.009 l 0,0.079 c 0.027,0 0.053,0 0.079,-0.009 M -0.568,0.184 C -0.49,0.14 -0.411,0.114 -0.324,0.131 l 0,0.079 C -0.411,0.192 -0.498,0.227 -0.568,0.28 l 0,-0.096 z m 0.244,0.568 c -0.078,0.044 -0.157,0.061 -0.244,0.061 l 0,-0.078 c 0.087,0 0.174,-0.027 0.244,-0.079 l 0,0.096 z m 0,-0.236 0,-0.079 -0.026,0 c 0.009,-0.009 0.018,-0.026 0.026,-0.035 l 0,-0.14 c -0.043,0.062 -0.087,0.123 -0.131,0.184 l -0.113,0 0,0.087 0.043,0 C -0.542,0.542 -0.551,0.56 -0.568,0.577 l 0,0.123 c 0.035,-0.044 0.07,-0.079 0.105,-0.123 0.017,-0.017 0.035,-0.035 0.043,-0.052 0.035,0 0.061,0 0.096,-0.009 M -0.735,0.324 c 0.027,-0.027 0.053,-0.053 0.079,-0.07 0.026,-0.027 0.061,-0.053 0.088,-0.07 l 0,0.096 C -0.577,0.289 -0.595,0.297 -0.603,0.315 -0.647,0.35 -0.691,0.393 -0.735,0.437 l 0,-0.113 z m 0.167,0.489 c -0.027,0.009 -0.053,0.009 -0.088,0 l -0.035,0 C -0.7,0.822 -0.717,0.831 -0.735,0.848 l 0,-0.131 c 0.009,0 0.018,0 0.027,0.009 0.052,-0.053 0.096,-0.096 0.14,-0.149 l 0,0.123 c -0.009,0.008 -0.027,0.026 -0.035,0.035 l 0.035,0 0,0.078 z m 0,-0.28 0,-0.087 -0.167,0 0,0.079 c 0.053,0.008 0.114,0.008 0.167,0.008 m -0.298,-0.096 0,0 c 0.044,-0.035 0.088,-0.078 0.131,-0.113 l 0,0.113 -0.008,0.009 0.008,0 0,0.079 -0.096,0 C -0.848,0.533 -0.857,0.551 -0.866,0.56 l 0,-0.123 z m 0.131,0.411 c -0.035,0.026 -0.078,0.044 -0.122,0.061 0,0 -0.009,0 -0.009,0.009 l 0,-0.096 C -0.84,0.813 -0.813,0.805 -0.796,0.787 -0.822,0.778 -0.848,0.77 -0.866,0.752 l 0,-0.087 c 0.035,0.017 0.088,0.035 0.131,0.052 l 0,0.131 z m -0.297,-0.42 c 0.053,0.009 0.114,0.009 0.166,0.009 l 0,0.123 c -0.026,0.017 -0.052,0.043 -0.078,0.061 0.026,0.017 0.052,0.035 0.078,0.044 l 0,0.087 C -0.918,0.735 -0.971,0.708 -1.014,0.673 l -0.018,0.009 0,-0.114 0.018,0.009 c 0.017,-0.017 0.043,-0.035 0.07,-0.061 l -0.088,0 0,-0.088 z m 0.166,0.49 c -0.052,0.018 -0.113,0.026 -0.166,0.026 l 0,-0.078 c 0.053,-0.009 0.096,-0.018 0.149,-0.035 0,0 0.009,0 0.017,-0.009 l 0,0.096 z M -1.408,0.778 C -1.294,0.743 -1.189,0.691 -1.093,0.63 -1.146,0.577 -1.207,0.533 -1.259,0.481 l -0.088,-0.088 0.123,0.018 c 0.061,0.009 0.131,0.009 0.192,0.017 l 0,0.088 C -1.058,0.507 -1.084,0.507 -1.111,0.507 c 0.027,0.018 0.053,0.044 0.079,0.061 l 0,0.114 c -0.079,0.053 -0.157,0.105 -0.245,0.14 0.079,0.026 0.166,0.044 0.245,0.044 l 0,0.078 C -1.154,0.953 -1.277,0.918 -1.39,0.866 -1.513,0.918 -1.635,0.953 -1.766,0.953 l 0,-0.087 C -1.679,0.874 -1.592,0.857 -1.513,0.822 -1.6,0.787 -1.688,0.743 -1.766,0.691 l 0,-0.114 C -1.74,0.551 -1.705,0.533 -1.688,0.507 -1.714,0.516 -1.74,0.516 -1.766,0.516 l 0,-0.079 C -1.697,0.428 -1.635,0.42 -1.565,0.411 L -1.452,0.402 -1.53,0.49 c -0.053,0.043 -0.114,0.096 -0.175,0.14 0.096,0.061 0.192,0.113 0.297,0.148 M -1.766,0.953 C -1.819,0.944 -1.871,0.936 -1.924,0.918 l 0,-0.087 c 0.009,0 0.009,0.009 0.018,0.009 0.043,0.017 0.096,0.026 0.14,0.026 l 0,0.087 z M -1.924,0.446 c 0.053,0 0.105,-0.009 0.158,-0.009 l 0,0.079 c -0.027,0 -0.053,0.009 -0.079,0.009 0.026,0.017 0.044,0.035 0.07,0.052 l 0.009,0 0,0.114 -0.009,-0.009 c -0.044,0.026 -0.096,0.053 -0.149,0.079 l 0,-0.088 C -1.898,0.656 -1.871,0.647 -1.845,0.63 -1.871,0.603 -1.898,0.586 -1.924,0.568 l 0,-0.122 z m 0,0.472 -0.017,0 C -1.976,0.901 -2.02,0.874 -2.055,0.848 l 0,-0.131 c 0.044,-0.009 0.087,-0.026 0.131,-0.044 l 0,0.088 c -0.026,0.009 -0.052,0.017 -0.079,0.026 0.027,0.018 0.053,0.035 0.079,0.044 l 0,0.087 z M -2.055,0.332 c 0.044,0.035 0.079,0.079 0.122,0.114 l 0.009,0 0,0.122 C -1.933,0.551 -1.95,0.542 -1.959,0.533 l -0.096,0 0,-0.078 0.009,0 -0.009,-0.009 0,-0.114 z m 0,0.516 C -2.073,0.84 -2.09,0.831 -2.108,0.813 c -0.008,0 -0.017,0.009 -0.026,0.009 l -0.096,0 0,-0.079 0.044,0 -0.044,-0.043 0,-0.123 c 0.053,0.053 0.096,0.105 0.149,0.149 0.008,0 0.017,0 0.026,-0.009 l 0,0.131 z M -2.23,0.184 c 0.035,0.026 0.07,0.043 0.096,0.07 0.026,0.026 0.053,0.052 0.079,0.078 l 0,0.114 C -2.099,0.402 -2.142,0.359 -2.186,0.315 -2.204,0.306 -2.212,0.297 -2.23,0.289 l 0,-0.105 z m 0.175,0.271 -0.175,0 0,0.079 0.175,0 0,-0.079 z M -2.23,0.822 c -0.079,0 -0.166,-0.026 -0.236,-0.061 l 0,-0.096 c 0.07,0.043 0.157,0.07 0.236,0.078 l 0,0.079 z M -2.466,0.131 C -2.379,0.122 -2.3,0.14 -2.23,0.184 l 0,0.105 C -2.3,0.236 -2.379,0.201 -2.466,0.219 l 0,-0.088 z m 0.236,0.569 0,-0.123 C -2.239,0.568 -2.256,0.551 -2.265,0.533 l 0.035,0 0,-0.078 -0.105,0 C -2.379,0.393 -2.422,0.324 -2.466,0.262 l 0,0.149 0.026,0.035 -0.026,0 0,0.079 c 0.026,0 0.061,0.008 0.087,0.008 l 0.053,0.053 C -2.3,0.63 -2.265,0.665 -2.23,0.7 M -2.466,0.761 C -2.492,0.743 -2.519,0.726 -2.545,0.708 l 0,-0.105 0.026,0.027 c 0.018,0.008 0.035,0.026 0.053,0.035 l 0,0.096 z M -2.545,0.14 -2.536,0.157 c 0.017,-0.008 0.044,-0.017 0.07,-0.026 l 0,0.088 c -0.009,0 -0.018,0 -0.026,0.008 0.008,0.009 0.017,0.027 0.026,0.035 l 0,0.149 C -2.492,0.367 -2.519,0.332 -2.545,0.289 l 0,-0.149 z m 0.079,0.385 0,-0.079 C -2.492,0.437 -2.519,0.437 -2.545,0.437 l 0,0.079 c 0.026,0 0.053,0.009 0.079,0.009 M -2.545,0.708 C -2.554,0.7 -2.562,0.7 -2.571,0.691 -2.597,0.673 -2.615,0.647 -2.632,0.63 l 0,-0.21 c 0.026,0.008 0.052,0.008 0.087,0.017 l 0,0.079 c -0.026,0 -0.052,-0.009 -0.078,-0.009 0.017,0.035 0.043,0.061 0.078,0.096 l 0,0.105 z m -0.087,-0.717 c 0.026,0.044 0.052,0.096 0.087,0.149 l 0,0.149 -0.026,-0.027 C -2.597,0.28 -2.615,0.297 -2.632,0.324 l 0,-0.123 c 0.009,0 0.009,-0.009 0.017,-0.009 l -0.017,-0.035 0,-0.166 z m 0,0.639 C -2.667,0.586 -2.702,0.542 -2.72,0.49 -2.746,0.481 -2.772,0.481 -2.79,0.472 l 0,-0.087 c 0.018,0.008 0.035,0.008 0.053,0.017 0,-0.087 0.044,-0.148 0.105,-0.201 l 0,0.123 C -2.65,0.35 -2.658,0.385 -2.65,0.42 l 0.018,0 0,0.21 z M -2.79,0.009 -2.685,-0.105 c 0.018,0.035 0.035,0.061 0.053,0.096 l 0,0.166 C -2.658,0.114 -2.676,0.079 -2.702,0.044 l -0.088,0.087 0,-0.122 z m 0,0.463 C -2.895,0.446 -2.991,0.411 -3.069,0.35 l -0.035,-0.035 0.314,-0.306 0,0.122 -0.183,0.175 c 0.052,0.035 0.113,0.061 0.183,0.079 l 0,0.087 z"
         style="fill:#46464a;fill-opacity:1;fill-rule:evenodd;stroke:none"
         id="path1758"
         inkscape:connector-curvature="0" /></g><g
       id="g1760"
       transform="matrix(60,0,0,60,225.54129,459.1126)"><path
         d="M 0,0 0.105,-0.105 C 0.21,-0.219 0.262,-0.359 0.21,-0.507 0.289,-0.56 0.376,-0.612 0.463,-0.656 l -0.419,-0.42 -0.035,0.035 c 0,0.009 0,0.009 -0.009,0.018 l 0,0.175 0.052,-0.105 0.28,0.28 C 0.28,-0.647 0.219,-0.612 0.166,-0.586 0.131,-0.647 0.07,-0.691 0,-0.708 l 0,0.087 c 0.044,0.009 0.07,0.044 0.096,0.079 C 0.07,-0.525 0.035,-0.498 0,-0.481 l 0,0.105 C 0.044,-0.411 0.087,-0.437 0.131,-0.463 0.166,-0.35 0.122,-0.245 0.044,-0.157 0.026,-0.149 0.017,-0.131 0,-0.122 L 0,0 z M 0,2.291 0.009,2.3 0.035,2.335 0.455,1.915 C 0.367,1.871 0.289,1.828 0.201,1.775 0.254,1.627 0.201,1.478 0.096,1.364 0.07,1.329 0.035,1.303 0,1.268 L 0,1.382 0.035,1.425 C 0.114,1.504 0.166,1.618 0.131,1.732 0.087,1.697 0.044,1.67 0,1.644 L 0,1.74 C 0.035,1.766 0.061,1.784 0.096,1.801 0.07,1.836 0.044,1.871 0,1.88 L 0,1.968 C 0.07,1.95 0.122,1.906 0.166,1.845 0.21,1.88 0.262,1.906 0.315,1.933 L 0.044,2.212 C 0.026,2.186 0.017,2.151 0,2.125 L 0,2.291 z M -0.192,0.42 c 0.026,0.026 0.043,0.052 0.07,0.07 L -0.044,0.577 -0.052,0.455 C -0.07,0.341 -0.079,0.219 -0.087,0.096 -0.061,0.061 -0.026,0.035 0,0 l 0,-0.122 c -0.026,0.035 -0.061,0.07 -0.096,0.105 0,-0.097 0,-0.193 0.009,-0.289 0.026,-0.026 0.061,-0.044 0.087,-0.07 l 0,-0.105 c -0.026,0.026 -0.052,0.044 -0.087,0.07 0.008,-0.079 0.017,-0.149 0.026,-0.219 0.026,0 0.044,0 0.061,0.009 l 0,-0.087 -0.044,0 C -0.026,-0.761 -0.017,-0.805 0,-0.848 l 0,-0.175 c -0.07,0.096 -0.105,0.218 -0.131,0.332 -0.018,0.009 -0.044,0.018 -0.061,0.026 l 0,0.097 c 0.017,-0.009 0.026,-0.018 0.043,-0.027 -0.008,0.079 -0.017,0.167 -0.026,0.245 l -0.017,0.018 0,0.105 0.017,-0.009 0,0.306 -0.017,0.017 0,0.132 c 0.008,-0.018 0.017,-0.027 0.026,-0.035 0.009,0.052 0.009,0.105 0.017,0.157 C -0.166,0.324 -0.175,0.306 -0.192,0.289 l 0,0.131 z m 0,1.504 C -0.175,1.941 -0.157,1.95 -0.131,1.95 -0.114,2.073 -0.07,2.195 0,2.291 L 0,2.125 C -0.017,2.073 -0.035,2.02 -0.044,1.968 L 0,1.968 0,1.88 C -0.017,1.889 -0.044,1.889 -0.061,1.889 -0.079,1.819 -0.087,1.749 -0.087,1.679 -0.061,1.697 -0.026,1.723 0,1.74 L 0,1.644 C -0.035,1.618 -0.061,1.592 -0.096,1.565 c -0.009,-0.096 0,-0.192 0,-0.288 0.035,0.035 0.061,0.07 0.096,0.105 L 0,1.268 C -0.026,1.233 -0.061,1.198 -0.096,1.163 -0.087,1.041 -0.079,0.927 -0.061,0.805 L -0.044,0.682 -0.131,0.77 c -0.018,0.017 -0.044,0.043 -0.061,0.061 l 0,0.131 c 0.008,-0.018 0.026,-0.026 0.035,-0.044 0,0.053 -0.009,0.105 -0.009,0.158 l -0.026,-0.027 0,0.132 0.017,0.017 c -0.009,0.096 -0.009,0.201 -0.009,0.297 l -0.008,-0.008 0,0.113 0.017,0.009 c 0,0.079 0.009,0.166 0.026,0.245 C -0.166,1.845 -0.175,1.836 -0.192,1.828 l 0,0.096 z m -0.079,-1.592 0,-0.008 c 0.026,0.035 0.052,0.07 0.079,0.096 l 0,-0.131 C -0.201,0.28 -0.21,0.262 -0.219,0.254 -0.21,0.236 -0.201,0.227 -0.192,0.219 l 0,-0.132 c -0.027,0.035 -0.053,0.062 -0.079,0.097 l 0,-0.018 0,0.166 z m 0.079,-0.997 c -0.027,0.018 -0.062,0.035 -0.079,0.062 l 0,0.122 0.009,-0.009 c 0.017,-0.026 0.043,-0.052 0.07,-0.078 l 0,-0.097 z m -0.079,2.536 c 0.017,0.018 0.052,0.044 0.079,0.053 l 0,-0.096 C -0.219,1.81 -0.245,1.784 -0.271,1.758 l 0,-0.009 0,0.122 z m 0.079,-1.04 c -0.027,0.035 -0.053,0.07 -0.079,0.105 l 0,0.148 c 0.026,0.027 0.052,0.062 0.079,0.097 l 0,-0.132 C -0.201,1.041 -0.219,1.023 -0.227,1.006 -0.219,0.988 -0.201,0.979 -0.192,0.962 l 0,-0.131 z m 0,0.769 0,-0.113 C -0.219,1.469 -0.245,1.443 -0.271,1.417 l 0,0.113 c 0.009,0.009 0.026,0.018 0.035,0.035 0.017,0.009 0.035,0.018 0.044,0.035 m 0,-1.827 0,-0.105 c -0.009,0.008 -0.027,0.017 -0.035,0.026 -0.018,0.017 -0.035,0.035 -0.044,0.044 l 0,0.113 c 0.026,-0.026 0.052,-0.052 0.079,-0.078 M -0.35,0.464 C -0.332,0.42 -0.306,0.367 -0.271,0.332 l 0,-0.166 C -0.306,0.122 -0.332,0.061 -0.35,0.009 l 0,0.192 c 0.009,0.018 0.018,0.035 0.026,0.053 -0.008,0.008 -0.017,0.026 -0.026,0.043 l 0,0.167 z m 0.079,-1.067 c -0.026,0.017 -0.044,0.035 -0.061,0.061 0,0.009 -0.009,0.017 -0.018,0.026 l 0,0.166 c 0.018,-0.044 0.044,-0.096 0.079,-0.131 l 0,-0.122 z M -0.35,1.784 c 0.009,0.009 0.009,0.017 0.018,0.026 l 0.061,0.061 0,-0.122 C -0.306,1.714 -0.332,1.67 -0.35,1.627 l 0,0.157 z m 0.079,-0.848 -0.009,0 C -0.306,0.901 -0.332,0.857 -0.35,0.813 l 0,0.166 c 0.009,0.009 0.018,0.018 0.026,0.035 -0.008,0.009 -0.017,0.018 -0.026,0.035 l 0,0.184 c 0.018,-0.052 0.044,-0.105 0.079,-0.149 l 0,-0.148 z m 0,0.594 0,-0.113 C -0.297,1.39 -0.324,1.364 -0.35,1.338 l 0,0.122 c 0.026,0.018 0.053,0.044 0.079,0.07 m 0,-1.679 0,-0.113 c -0.026,0.026 -0.053,0.043 -0.079,0.07 l 0,0.113 c 0.026,-0.026 0.053,-0.043 0.079,-0.07 M -0.42,0.63 c 0.018,-0.062 0.044,-0.114 0.07,-0.166 l 0,-0.167 C -0.376,0.332 -0.402,0.376 -0.42,0.42 l 0,0.21 z m 0.07,-1.146 c -0.026,0.035 -0.052,0.079 -0.07,0.122 l 0,0.455 c 0.018,0.044 0.044,0.096 0.07,0.14 l 0,-0.192 c -0.009,-0.018 -0.017,-0.044 -0.017,-0.061 0.008,-0.009 0.008,-0.018 0.017,-0.027 l 0,-0.113 c -0.009,0.008 -0.017,0.017 -0.035,0.035 0,-0.07 0.009,-0.132 0.035,-0.193 l 0,-0.166 z M -0.42,1.67 c 0.018,0.044 0.044,0.079 0.07,0.114 l 0,-0.157 C -0.376,1.565 -0.385,1.495 -0.385,1.425 -0.376,1.434 -0.359,1.443 -0.35,1.46 l 0,-0.122 C -0.359,1.329 -0.367,1.32 -0.376,1.32 -0.367,1.286 -0.359,1.259 -0.35,1.233 l 0,-0.184 c -0.026,0.044 -0.052,0.088 -0.07,0.14 l 0,0.481 z M -0.35,0.813 C -0.376,0.761 -0.402,0.7 -0.42,0.647 l 0,0.21 c 0.018,0.044 0.044,0.079 0.07,0.122 l 0,-0.166 z m -0.07,-0.175 0,-0.008 0,-0.21 C -0.437,0.446 -0.455,0.481 -0.464,0.516 -0.507,0.385 -0.533,0.245 -0.481,0.122 c 0.017,-0.035 0.035,-0.07 0.053,-0.096 0,0.009 0,0.018 0.008,0.035 l 0,-0.455 c -0.035,0.088 -0.052,0.184 -0.044,0.28 0,0.018 0.009,0.027 0.009,0.035 -0.043,0.053 -0.078,0.105 -0.105,0.166 -0.07,0.184 -0.026,0.368 0.044,0.534 -0.07,0.175 -0.114,0.367 -0.044,0.551 0.027,0.061 0.062,0.114 0.096,0.166 l 0,0.035 c -0.017,0.105 0,0.201 0.044,0.297 l 0,-0.481 C -0.428,1.207 -0.428,1.216 -0.437,1.233 -0.455,1.207 -0.472,1.172 -0.481,1.146 -0.533,1.014 -0.516,0.875 -0.472,0.743 c 0.017,0.044 0.035,0.079 0.052,0.114 l 0,-0.21 0,-0.009 z"
         style="fill:#46464a;fill-opacity:1;fill-rule:evenodd;stroke:none"
         id="path1762"
         inkscape:connector-curvature="0" /></g><g
       id="g1764"
       transform="matrix(60,0,0,60,463.23129,497.4166)"><path
         d="m 0,0 0,-0.009 0,-0.21 c 0.017,0.027 0.026,0.062 0.044,0.097 C 0.087,-0.254 0.105,-0.393 0.052,-0.516 0.044,-0.551 0.026,-0.586 0.009,-0.612 0.009,-0.603 0,-0.595 0,-0.577 l 0,-0.455 c 0.035,0.088 0.052,0.184 0.035,0.28 l 0,0.035 c 0.044,0.052 0.079,0.105 0.096,0.166 0.07,0.184 0.026,0.367 -0.044,0.534 C 0.166,0.157 0.21,0.35 0.14,0.533 0.114,0.595 0.079,0.647 0.044,0.7 l 0,0.035 C 0.052,0.84 0.035,0.936 0,1.032 L 0,0.551 C 0,0.568 0.009,0.577 0.017,0.595 0.035,0.568 0.052,0.533 0.061,0.507 0.114,0.376 0.096,0.236 0.052,0.105 0.035,0.149 0.017,0.184 0,0.219 L 0,0.009 0,0 z M 0,-0.009 C -0.017,-0.07 -0.044,-0.122 -0.07,-0.175 l 0,-0.166 c 0.026,0.035 0.044,0.079 0.07,0.122 l 0,0.21 z m -0.07,-1.145 c 0.026,0.035 0.053,0.078 0.07,0.122 l 0,0.455 c -0.017,0.044 -0.044,0.096 -0.07,0.14 l 0,-0.193 c 0.009,-0.017 0.009,-0.043 0.018,-0.061 C -0.061,-0.7 -0.07,-0.708 -0.07,-0.717 l 0,-0.114 c 0.009,0.009 0.018,0.018 0.026,0.035 0.009,-0.07 -0.008,-0.131 -0.026,-0.192 l 0,-0.166 z M 0,1.032 c -0.017,0.044 -0.044,0.079 -0.07,0.114 l 0,-0.158 c 0.026,-0.07 0.035,-0.131 0.035,-0.201 -0.009,0.009 -0.026,0.018 -0.035,0.035 l 0,-0.122 c 0.009,-0.009 0.018,-0.018 0.018,-0.018 0,-0.035 -0.009,-0.061 -0.018,-0.079 l 0,-0.192 C -0.044,0.455 -0.017,0.498 0,0.551 L 0,1.032 z M -0.07,0.175 C -0.044,0.122 -0.017,0.061 0,0.009 l 0,0.21 c -0.026,0.035 -0.044,0.078 -0.07,0.122 l 0,-0.166 z m 0,-0.35 c -0.026,-0.044 -0.052,-0.087 -0.079,-0.131 l 0,-0.166 c 0.035,-0.044 0.062,-0.105 0.079,-0.158 l 0,0.193 c -0.009,0.017 -0.017,0.035 -0.026,0.052 0.009,0.009 0.017,0.026 0.026,0.044 l 0,0.166 z m -0.079,-1.067 c 0.018,0.018 0.044,0.035 0.053,0.061 0.009,0.009 0.017,0.018 0.026,0.027 l 0,0.166 c -0.017,-0.044 -0.044,-0.096 -0.079,-0.131 l 0,-0.123 z m 0.079,2.388 c -0.009,0.008 -0.009,0.017 -0.017,0.026 -0.018,0.017 -0.035,0.035 -0.062,0.061 l 0,-0.122 C -0.114,1.076 -0.087,1.032 -0.07,0.988 l 0,0.158 z m -0.079,-0.849 0,0 C -0.114,0.262 -0.096,0.219 -0.07,0.175 l 0,0.166 c -0.009,0.009 -0.017,0.018 -0.026,0.035 0.009,0.009 0.017,0.018 0.026,0.035 l 0,0.192 C -0.087,0.542 -0.114,0.49 -0.149,0.446 l 0,-0.149 z m 0.079,0.525 0,-0.122 c -0.026,0.026 -0.052,0.052 -0.079,0.078 l 0,0.114 C -0.122,0.866 -0.096,0.84 -0.07,0.822 m 0,-1.539 0,-0.114 c -0.026,-0.026 -0.052,-0.043 -0.079,-0.07 l 0,0.114 c 0.027,0.026 0.053,0.044 0.079,0.07 m -0.079,0.411 0,-0.009 c -0.026,0.035 -0.052,0.07 -0.078,0.096 l 0,-0.131 c 0.008,-0.009 0.017,-0.026 0.026,-0.035 -0.009,-0.017 -0.018,-0.026 -0.026,-0.035 l 0,-0.131 c 0.026,0.035 0.052,0.061 0.07,0.096 l 0.008,-0.017 0,0.166 z m -0.078,-0.997 c 0.026,0.018 0.052,0.035 0.078,0.061 l 0,0.123 -0.008,-0.009 c -0.018,-0.026 -0.044,-0.053 -0.07,-0.079 l 0,-0.096 z m 0.078,2.536 c -0.026,0.018 -0.052,0.044 -0.078,0.053 l 0,-0.097 c 0.026,-0.017 0.052,-0.043 0.078,-0.07 l 0,-0.008 0,0.122 z M -0.227,0.192 c 0.026,0.035 0.052,0.07 0.078,0.105 l 0,0.149 c -0.026,0.026 -0.052,0.061 -0.078,0.096 l 0,-0.131 C -0.219,0.402 -0.21,0.385 -0.192,0.367 -0.21,0.35 -0.219,0.341 -0.227,0.324 l 0,-0.132 z m 0.078,0.7 0,-0.114 c -0.026,0.027 -0.052,0.053 -0.078,0.07 l 0,0.114 c 0.008,-0.018 0.026,-0.026 0.035,-0.035 0.017,-0.018 0.035,-0.026 0.043,-0.035 m 0,-1.679 0,-0.114 C -0.166,-0.909 -0.175,-0.927 -0.192,-0.944 -0.21,-0.953 -0.219,-0.962 -0.227,-0.971 l 0,0.105 c 0.026,0.027 0.052,0.053 0.078,0.079 m -0.078,0.568 c -0.027,0.027 -0.044,0.053 -0.07,0.07 l -0.088,0.088 0.018,-0.123 c 0.017,-0.113 0.026,-0.236 0.035,-0.358 -0.035,-0.035 -0.062,-0.061 -0.088,-0.096 l 0,-0.123 c 0.026,0.035 0.061,0.07 0.088,0.105 0.008,-0.096 0.008,-0.192 0,-0.288 -0.027,-0.027 -0.062,-0.044 -0.088,-0.07 l 0,-0.105 c 0.026,0.026 0.053,0.043 0.079,0.07 0,-0.079 -0.009,-0.149 -0.026,-0.219 -0.018,0 -0.035,0 -0.053,0.009 l 0,-0.088 0.035,0 c -0.009,-0.052 -0.017,-0.096 -0.035,-0.14 l 0,-0.174 c 0.061,0.096 0.105,0.218 0.131,0.332 0.018,0.009 0.035,0.017 0.062,0.026 l 0,0.096 c -0.018,-0.009 -0.035,-0.017 -0.044,-0.026 0.009,0.079 0.017,0.166 0.017,0.245 l 0.027,0.017 0,0.105 -0.018,-0.008 c 0,0.096 0,0.201 -0.009,0.306 l 0.027,0.017 0,0.131 c -0.009,-0.017 -0.018,-0.026 -0.027,-0.035 -0.008,0.053 -0.008,0.105 -0.017,0.158 0.017,-0.018 0.026,-0.035 0.044,-0.053 l 0,0.131 z m 0,1.505 C -0.245,1.303 -0.271,1.312 -0.289,1.312 -0.315,1.434 -0.35,1.557 -0.42,1.653 l 0,-0.166 c 0.018,-0.053 0.035,-0.105 0.044,-0.158 l -0.044,0 0,-0.087 c 0.018,0.009 0.035,0.009 0.061,0.009 0.009,-0.07 0.018,-0.14 0.027,-0.21 -0.027,0.017 -0.062,0.043 -0.088,0.061 l 0,-0.096 c 0.026,-0.027 0.061,-0.053 0.096,-0.079 l 0,-0.289 c -0.035,0.035 -0.07,0.07 -0.096,0.105 l 0,-0.113 c 0.026,-0.035 0.061,-0.07 0.088,-0.105 0,-0.123 -0.018,-0.236 -0.027,-0.359 l -0.017,-0.122 0.087,0.087 c 0.018,0.018 0.035,0.044 0.062,0.061 l 0,0.132 C -0.245,0.306 -0.254,0.297 -0.262,0.28 c 0,0.052 0.008,0.105 0.008,0.157 l 0.027,-0.026 0,0.131 -0.018,0.018 c 0,0.096 0.009,0.201 0,0.297 l 0.018,-0.009 0,0.114 -0.018,0.009 c -0.009,0.078 -0.009,0.166 -0.026,0.245 0.017,-0.009 0.026,-0.018 0.044,-0.027 l 0,0.097 z M -0.42,-0.638 -0.525,-0.743 C -0.63,-0.857 -0.682,-0.997 -0.63,-1.146 -0.717,-1.198 -0.805,-1.251 -0.883,-1.294 l 0.42,-0.42 0.026,0.035 c 0.009,0.009 0.009,0.009 0.017,0.018 l 0,0.174 -0.052,-0.105 -0.28,0.28 c 0.052,0.027 0.114,0.061 0.157,0.088 0.044,-0.061 0.097,-0.105 0.175,-0.123 l 0,0.088 c -0.043,0.008 -0.078,0.043 -0.105,0.078 0.035,0.018 0.07,0.044 0.105,0.062 l 0,0.105 c -0.043,-0.035 -0.096,-0.062 -0.14,-0.088 -0.035,0.114 0.018,0.219 0.097,0.306 0.008,0.009 0.026,0.026 0.043,0.035 l 0,0.123 z m 0,2.291 -0.008,0.009 -0.027,0.035 -0.428,-0.42 c 0.087,-0.044 0.175,-0.088 0.262,-0.14 -0.061,-0.149 0,-0.297 0.105,-0.411 C -0.49,0.691 -0.455,0.665 -0.42,0.63 l 0,0.113 C -0.437,0.761 -0.446,0.77 -0.455,0.787 -0.533,0.866 -0.586,0.979 -0.551,1.093 -0.507,1.058 -0.463,1.032 -0.42,1.006 l 0,0.096 c -0.035,0.026 -0.061,0.044 -0.096,0.061 0.026,0.035 0.053,0.07 0.096,0.079 l 0,0.087 C -0.49,1.312 -0.542,1.268 -0.586,1.207 -0.638,1.242 -0.682,1.268 -0.735,1.294 l 0.272,0.28 C -0.446,1.548 -0.437,1.513 -0.42,1.487 l 0,0.166 z"
         style="fill:#46464a;fill-opacity:1;fill-rule:evenodd;stroke:none"
         id="path1766"
         inkscape:connector-curvature="0" /></g><g
       id="g1768"
       transform="matrix(60,0,0,60,259.64529,313.2466)"><path
         d="M 0,0 C 0,-0.009 -0.009,-0.017 -0.017,-0.009 L -0.052,0 c -0.009,0.009 -0.009,0.018 -0.009,0.018 l 0.148,0.349 c 0,0 0,0.009 -0.008,0.009 L 0.061,0.367 c -0.009,0 -0.017,0 -0.017,0.009 L 0.026,0.402 c 0,0.009 0,0.018 0.009,0.018 l 0.079,0.035 0.026,0 0.026,-0.018 c 0.009,0 0.009,-0.009 0.009,-0.017 L 0,0 z"
         style="fill:#46464a;fill-opacity:1;fill-rule:evenodd;stroke:none"
         id="path1770"
         inkscape:connector-curvature="0" /></g><g
       id="g1772"
       transform="matrix(60,0,0,60,283.26129,328.4626)"><path
         d="M 0,0 C 0.009,0.017 0,0.035 0,0.044 -0.009,0.061 -0.017,0.061 -0.035,0.07 l -0.017,0 0,0.061 c 0.008,0 0.026,0 0.035,-0.009 0.008,0 0.026,-0.008 0.034,-0.017 C 0.026,0.096 0.035,0.087 0.044,0.079 0.052,0.061 0.061,0.052 0.061,0.035 0.061,0.017 0.061,0 0.052,-0.017 L 0.044,-0.052 C 0.044,-0.07 0.035,-0.079 0.026,-0.096 0.009,-0.114 0,-0.122 -0.017,-0.122 -0.009,-0.131 0,-0.14 0,-0.149 0.009,-0.157 0.009,-0.175 0.009,-0.184 l 0,-0.026 0,-0.026 L 0,-0.262 c -0.009,-0.027 -0.017,-0.044 -0.026,-0.062 -0.009,-0.008 -0.018,-0.017 -0.026,-0.017 l 0,0.105 0,0.009 c 0.008,0.026 0.008,0.035 0,0.052 l 0,0.096 c 0.008,0 0.008,0 0.017,0.009 0.009,0.009 0.018,0.018 0.026,0.035 L 0,0 z m -0.052,0.07 c -0.009,0 -0.009,0 -0.018,-0.009 -0.017,0 -0.026,-0.017 -0.026,-0.035 L -0.105,0 c -0.009,-0.026 -0.009,-0.035 0,-0.052 0.009,-0.018 0.018,-0.027 0.026,-0.027 l 0.027,0 0,-0.096 c -0.009,0.018 -0.027,0.026 -0.044,0.035 -0.018,0 -0.026,0 -0.044,-0.009 -0.017,-0.008 -0.026,-0.017 -0.035,-0.043 l 0,-0.027 c -0.009,-0.017 -0.009,-0.035 0,-0.052 0.009,-0.018 0.018,-0.026 0.035,-0.026 0.018,-0.009 0.035,-0.009 0.053,0 0.017,0.008 0.026,0.026 0.026,0.043 l 0.009,0.018 0,-0.105 -0.009,-0.009 c -0.018,-0.009 -0.035,-0.009 -0.044,-0.017 -0.017,0 -0.035,0.008 -0.052,0.008 -0.009,0.009 -0.027,0.009 -0.044,0.018 -0.009,0.009 -0.018,0.026 -0.026,0.035 -0.009,0.017 -0.009,0.026 -0.018,0.044 0,0.017 0,0.035 0.009,0.061 l 0.009,0.026 c 0,0.009 0.008,0.018 0.008,0.026 0.009,0.009 0.009,0.018 0.018,0.027 0.009,0.008 0.017,0.017 0.026,0.017 0.009,0.009 0.018,0.009 0.026,0.018 -0.008,0.008 -0.017,0.026 -0.017,0.043 l 0,0.053 0.009,0.026 c 0.008,0.026 0.017,0.035 0.026,0.052 0.009,0.009 0.026,0.027 0.035,0.027 0.009,0.008 0.026,0.017 0.035,0.017 l 0.009,0 0,-0.061 z"
         style="fill:#46464a;fill-opacity:1;fill-rule:evenodd;stroke:none"
         id="path1774"
         inkscape:connector-curvature="0" /></g><g
       id="g1776"
       transform="matrix(60,0,0,60,301.09929,324.7906)"><path
         d="M 0,0 C 0,0.017 0,0.035 -0.009,0.044 -0.018,0.061 -0.026,0.061 -0.044,0.07 l -0.008,0 0,0.052 0.017,0 c 0.017,0 0.026,0 0.035,-0.008 C 0.017,0.105 0.026,0.096 0.035,0.087 0.044,0.07 0.052,0.061 0.052,0.044 c 0.009,-0.018 0.009,-0.035 0,-0.053 l 0,-0.035 C 0.044,-0.061 0.044,-0.079 0.035,-0.087 0.026,-0.105 0.009,-0.114 -0.009,-0.122 0,-0.131 0.009,-0.14 0.017,-0.149 0.026,-0.157 0.026,-0.166 0.026,-0.175 0.035,-0.184 0.035,-0.192 0.035,-0.21 l 0,-0.026 -0.009,-0.026 C 0.026,-0.289 0.017,-0.306 0.009,-0.315 0,-0.332 -0.009,-0.341 -0.026,-0.35 -0.035,-0.359 -0.044,-0.367 -0.052,-0.367 l 0,0.061 0,0.009 c 0.008,0.008 0.017,0.026 0.026,0.043 l 0,0.027 c 0,0.017 0,0.035 -0.009,0.052 -0.009,0.009 -0.009,0.018 -0.017,0.018 l 0,0.07 c 0.008,0 0.017,0.008 0.026,0.017 0.008,0.009 0.017,0.018 0.017,0.044 L 0,0 z M -0.052,0.07 C -0.061,0.07 -0.07,0.061 -0.079,0.061 -0.096,0.052 -0.096,0.035 -0.105,0.017 l 0,-0.034 c -0.009,-0.018 0,-0.035 0.009,-0.044 0,-0.018 0.017,-0.018 0.026,-0.026 l 0.018,0 0,-0.07 c -0.009,0.008 -0.018,0.008 -0.027,0.008 -0.017,0 -0.035,0 -0.043,-0.008 -0.018,-0.018 -0.027,-0.027 -0.027,-0.053 l -0.008,-0.026 c 0,-0.018 0,-0.035 0.008,-0.053 0.018,-0.008 0.027,-0.017 0.044,-0.026 0.018,0 0.035,0 0.053,0.009 l 0,-0.061 -0.018,0 c -0.009,-0.009 -0.026,-0.009 -0.044,0 -0.017,0 -0.026,0 -0.043,0.008 -0.009,0.009 -0.027,0.018 -0.035,0.027 -0.009,0.017 -0.018,0.026 -0.018,0.043 l 0,0.062 0,0.035 c 0.009,0.008 0.009,0.017 0.009,0.026 0.009,0.009 0.009,0.017 0.017,0.026 0,0.009 0.009,0.009 0.018,0.018 0.009,0.008 0.017,0.017 0.026,0.017 -0.009,0.009 -0.017,0.026 -0.017,0.044 -0.009,0.017 -0.009,0.035 -0.009,0.052 l 0.009,0.026 c 0,0.027 0.008,0.044 0.017,0.053 0.009,0.017 0.018,0.026 0.026,0.035 0.018,0.009 0.027,0.017 0.035,0.017 l 0.027,0 0,-0.052 z"
         style="fill:#46464a;fill-opacity:1;fill-rule:evenodd;stroke:none"
         id="path1778"
         inkscape:connector-curvature="0" /></g><g
       id="g1780"
       transform="matrix(60,0,0,60,319.45929,309.5746)"><path
         d="M 0,0 C 0,0.026 -0.009,0.044 -0.017,0.052 -0.035,0.07 -0.044,0.079 -0.061,0.079 l -0.009,0 0,0.061 0.009,0 c 0.017,0 0.026,0 0.035,0.017 0.009,0.009 0.017,0.027 0.017,0.044 l 0,0.035 c 0,0.018 0,0.026 -0.017,0.044 -0.009,0.009 -0.018,0.009 -0.026,0.009 l -0.018,0 0,0.061 0.018,0 c 0.008,0 0.026,0 0.035,-0.009 C 0,0.341 0.009,0.332 0.017,0.315 0.026,0.306 0.035,0.297 0.044,0.28 0.052,0.262 0.052,0.245 0.052,0.227 l 0,-0.035 C 0.052,0.175 0.044,0.166 0.035,0.149 0.026,0.131 0.017,0.114 0,0.105 0.017,0.105 0.026,0.096 0.026,0.087 0.035,0.079 0.044,0.07 0.044,0.061 0.044,0.052 0.052,0.044 0.052,0.026 l 0,-0.017 0,-0.035 C 0.052,-0.052 0.044,-0.07 0.044,-0.087 0.035,-0.096 0.026,-0.114 0.017,-0.122 0,-0.131 -0.009,-0.14 -0.026,-0.149 l -0.044,0 0,0.062 c 0.026,0 0.035,0 0.044,0.008 0.017,0.018 0.017,0.035 0.026,0.053 L 0,0 z M -0.07,0.079 C -0.087,0.079 -0.096,0.07 -0.105,0.061 -0.122,0.044 -0.131,0.026 -0.131,0.009 l 0,-0.026 c 0,-0.027 0.009,-0.044 0.017,-0.053 0.009,-0.017 0.027,-0.017 0.044,-0.017 l 0,-0.062 c -0.017,0 -0.035,0 -0.044,0.009 -0.017,0 -0.035,0.009 -0.043,0.026 -0.009,0.009 -0.018,0.018 -0.027,0.035 0,0.018 -0.008,0.035 0,0.062 l 0,0.026 0,0.026 c 0,0.017 0.009,0.026 0.009,0.035 0.009,0.009 0.009,0.017 0.018,0.017 0.008,0.009 0.017,0.018 0.026,0.027 -0.009,0.008 -0.018,0.026 -0.026,0.035 -0.009,0.017 -0.009,0.035 -0.009,0.052 l 0,0.035 c 0,0.018 0,0.035 0.009,0.053 0.008,0.008 0.017,0.026 0.026,0.035 0.009,0.008 0.026,0.017 0.035,0.017 0.009,0.009 0.017,0.009 0.026,0.009 l 0,-0.061 c -0.009,0 -0.017,0 -0.026,-0.009 C -0.105,0.271 -0.105,0.254 -0.114,0.236 l 0,-0.035 c 0,-0.017 0.009,-0.035 0.018,-0.044 C -0.087,0.149 -0.079,0.14 -0.07,0.14 l 0,-0.061 z"
         style="fill:#46464a;fill-opacity:1;fill-rule:evenodd;stroke:none"
         id="path1782"
         inkscape:connector-curvature="0" /></g><path
       d="m 327.30729,313.2226 8.94,0 0,-3.66 -8.94,0 0,3.66 z"
       style="fill:#46464a;fill-opacity:1;fill-rule:evenodd;stroke:none"
       id="path1784"
       inkscape:connector-curvature="0" /><g
       id="g1786"
       transform="matrix(60,0,0,60,387.67329,309.5746)"><path
         d="m 0,0 c 0.009,-0.009 0,-0.017 -0.009,-0.017 l -0.026,-0.009 c -0.009,-0.009 -0.017,0 -0.017,0.009 l -0.132,0.349 c 0,0.009 0,0.009 -0.008,0 L -0.201,0.324 c 0,-0.009 -0.009,-0.018 -0.018,-0.009 l -0.026,0.009 c -0.009,0 -0.017,0.008 -0.009,0.017 l 0.035,0.079 c 0.009,0 0.018,0.009 0.018,0.009 l 0.035,0.017 c 0,0 0.009,0 0.017,-0.009 L 0,0 z"
         style="fill:#46464a;fill-opacity:1;fill-rule:evenodd;stroke:none"
         id="path1788"
         inkscape:connector-curvature="0" /></g><g
       id="g1790"
       transform="matrix(60,0,0,60,365.63529,325.8406)"><path
         d="m 0,0 c 0,0.017 -0.009,0.035 -0.026,0.044 l 0,0.061 C 0.017,0.096 0.052,0.052 0.061,0.009 0.087,-0.096 0.096,-0.122 0.122,-0.236 0.131,-0.306 0.105,-0.367 0.026,-0.385 c -0.017,-0.009 -0.035,-0.009 -0.052,0 l 0,0.061 c 0.017,-0.008 0.026,-0.008 0.043,0 0.044,0.009 0.053,0.035 0.044,0.079 C 0.044,-0.157 0.026,-0.087 0,0 m -0.026,0.044 c -0.009,0 -0.026,0.008 -0.035,0 -0.035,0 -0.061,-0.035 -0.053,-0.061 0.027,-0.114 0.035,-0.158 0.053,-0.254 0.009,-0.026 0.017,-0.044 0.035,-0.053 l 0,-0.061 c -0.044,0.009 -0.079,0.044 -0.088,0.096 -0.026,0.114 -0.026,0.14 -0.052,0.254 -0.018,0.061 0.026,0.122 0.087,0.14 l 0.053,0 0,-0.061 z"
         style="fill:#46464a;fill-opacity:1;fill-rule:evenodd;stroke:none"
         id="path1792"
         inkscape:connector-curvature="0" /></g><g
       id="g1794"
       transform="matrix(60,0,0,60,402.88929,323.7406)"><path
         d="m 0,0 c -0.009,0.017 -0.026,0.026 -0.044,0.035 -0.008,0.009 -0.026,0.009 -0.043,0 C -0.096,0.026 -0.096,0.026 -0.105,0.017 l -0.035,0.07 0.018,0 c 0.017,0.009 0.026,0.018 0.026,0.035 0.009,0.009 0,0.027 0,0.044 l -0.018,0.026 c -0.008,0.018 -0.017,0.035 -0.035,0.035 -0.008,0.009 -0.026,0.009 -0.035,0 C -0.201,0.219 -0.21,0.21 -0.21,0.201 c -0.009,-0.017 0,-0.035 0,-0.052 l 0.009,0 -0.053,-0.035 0,0.008 c -0.008,0.018 -0.017,0.035 -0.017,0.053 0,0.017 0,0.035 0.009,0.044 0,0.017 0.008,0.026 0.017,0.035 0.009,0.008 0.018,0.017 0.035,0.026 0.009,0.009 0.026,0.009 0.035,0.009 l 0.044,0 C -0.114,0.28 -0.105,0.271 -0.096,0.262 -0.079,0.254 -0.07,0.236 -0.061,0.219 l 0.017,-0.027 c 0.009,-0.017 0.009,-0.035 0.009,-0.052 0,-0.018 0,-0.035 -0.009,-0.053 l 0.035,0 C 0,0.079 0.009,0.079 0.017,0.07 0.017,0.061 0.026,0.052 0.035,0.044 0.035,0.035 0.044,0.035 0.044,0.026 L 0.061,0 c 0.009,-0.026 0.018,-0.044 0.018,-0.061 0,-0.018 0,-0.035 -0.009,-0.044 0,-0.017 -0.009,-0.026 -0.026,-0.044 -0.009,-0.008 -0.018,-0.017 -0.035,-0.026 -0.018,0 -0.026,-0.009 -0.044,-0.009 l -0.044,0 c -0.017,0.009 -0.026,0.018 -0.043,0.027 -0.009,0.008 -0.018,0.026 -0.035,0.043 l -0.009,0.027 0.052,0.035 0,-0.009 0.009,-0.026 c 0.009,-0.018 0.026,-0.027 0.044,-0.035 0.009,-0.009 0.026,0 0.044,0.008 0.017,0.009 0.034,0.018 0.034,0.035 0.009,0.018 0,0.035 -0.008,0.053 L 0,0 z"
         style="fill:#46464a;fill-opacity:1;fill-rule:evenodd;stroke:none"
         id="path1796"
         inkscape:connector-curvature="0" /></g><g
       id="g1798"
       transform="matrix(60,0,0,60,349.36929,322.1686)"><path
         d="M 0,0 C 0,0.035 -0.026,0.061 -0.052,0.061 -0.087,0.061 -0.114,0.026 -0.114,0 l 0,-0.035 -0.061,0 0,0.026 c 0,0.061 0.053,0.123 0.114,0.123 0.07,0.008 0.122,-0.07 0.131,-0.14 0,-0.105 -0.149,-0.158 -0.14,-0.271 L 0.096,-0.28 0.105,-0.35 -0.149,-0.376 C -0.166,-0.166 0.009,-0.122 0,0"
         style="fill:#46464a;fill-opacity:1;fill-rule:evenodd;stroke:none"
         id="path1800"
         inkscape:connector-curvature="0" /></g></g></svg>